<svg width="125" height="125" viewBox="0 0 125 125" fill="none" xmlns="http://www.w3.org/2000/svg">
<circle cx="62.5" cy="62.5" r="62.5" fill="#E7E8EA"/>
<path d="M85.9062 51.4062C85.9062 37.9484 74.9578 27 61.5 27C48.0422 27 37.0938 37.9484 37.0938 51.4062C37.0938 58.9678 40.5517 65.7394 45.9688 70.219V95.7812C45.9688 96.6222 46.4436 97.3898 47.1946 97.7659C47.5086 97.9235 47.848 98 48.1853 98C48.6579 98 49.126 97.8491 49.5188 97.5563L61.5 88.5703L73.4813 97.5563C73.874 97.8502 74.341 98 74.8125 98C75.1509 98 75.4903 97.9235 75.8054 97.7659C76.5564 97.3898 77.0312 96.6222 77.0312 95.7812V70.219C82.4483 65.7394 85.9062 58.9678 85.9062 51.4062ZM48.1875 95.7812V71.8465C48.903 72.3135 49.643 72.744 50.4062 73.1345V94.1172L48.1875 95.7812ZM61.5 85.7969L52.625 92.4531V74.134C55.3774 75.2134 58.3693 75.8125 61.5 75.8125C64.6307 75.8125 67.6226 75.2134 70.375 74.134V92.4531L61.5 85.7969ZM74.8125 95.7812L72.5938 94.1172V73.1345C73.357 72.7429 74.097 72.3135 74.8125 71.8465V95.7812ZM61.5 73.5938C49.2658 73.5938 39.3125 63.6404 39.3125 51.4062C39.3125 39.1721 49.2658 29.2188 61.5 29.2188C73.7342 29.2188 83.6875 39.1721 83.6875 51.4062C83.6875 63.6404 73.7342 73.5938 61.5 73.5938Z" fill="#231F20"/>
<path d="M61.5 31.4375C50.4895 31.4375 41.5312 40.3957 41.5312 51.4062C41.5312 62.4168 50.4895 71.375 61.5 71.375C72.5105 71.375 81.4688 62.4168 81.4688 51.4062C81.4688 40.3957 72.5105 31.4375 61.5 31.4375ZM61.5 69.1562C51.7131 69.1562 43.75 61.1932 43.75 51.4062C43.75 41.6193 51.7131 33.6562 61.5 33.6562C71.2869 33.6562 79.25 41.6193 79.25 51.4062C79.25 61.1932 71.2869 69.1562 61.5 69.1562Z" fill="#231F20"/>
<path d="M69.4287 48.4786L64.6484 47.7486L62.5006 43.1747C62.3176 42.7842 61.926 42.5368 61.4966 42.5368C61.0673 42.5368 60.6757 42.7853 60.4927 43.1747L58.3449 47.7486L53.5646 48.4786C53.1541 48.5419 52.8125 48.8281 52.6804 49.223C52.5484 49.6179 52.6483 50.0517 52.9378 50.3501L56.4279 53.9301L55.6014 58.9933C55.5326 59.4126 55.7112 59.8342 56.0574 60.0794C56.4035 60.3245 56.8617 60.3489 57.2344 60.1437L61.4955 57.7874L65.7566 60.1437C65.9264 60.2358 66.1116 60.2813 66.2958 60.2813C66.5199 60.2813 66.744 60.2125 66.9348 60.0782C67.2809 59.8331 67.4595 59.4115 67.3907 58.9922L66.5643 53.929L70.0544 50.349C70.345 50.0506 70.4449 49.6168 70.3117 49.2219C70.1786 48.827 69.8402 48.5419 69.4287 48.4786ZM64.5851 52.7808C64.3389 53.0337 64.2279 53.3865 64.2845 53.7337L64.8336 57.094L62.0358 55.5464C61.8683 55.4544 61.6841 55.4078 61.4989 55.4078C61.3136 55.4078 61.1294 55.4544 60.9619 55.5464L58.1641 57.094L58.7132 53.7337C58.7698 53.3865 58.6577 53.0326 58.4126 52.7808L56.0374 50.3468L59.269 49.8531C59.634 49.7977 59.948 49.5636 60.1055 49.2286L61.5 46.2576L62.8945 49.2286C63.052 49.5647 63.3659 49.7988 63.7309 49.8531L66.9625 50.3468L64.5851 52.7808Z" fill="#231F20"/>
</svg>
