<svg width="125" height="125" viewBox="0 0 125 125" fill="none" xmlns="http://www.w3.org/2000/svg">
<circle cx="62.5" cy="62.5" r="62.5" fill="#E7E8EA"/>
<path d="M98.0402 82.3344H90.1566L92.8976 81.5997C93.1425 81.4773 93.5099 81.3547 93.6323 80.9874C93.7547 80.6201 93.8772 80.3751 93.7547 80.0078L91.9366 73.2599C91.9467 73.1408 91.9411 73.0211 91.918 72.9059L90.6936 68.1305C90.6354 68.0142 90.5492 67.8708 90.4491 67.7386L84.3231 45.0018C84.3558 44.8345 84.3591 44.662 84.3264 44.4981L83.1019 39.7227C83.0265 39.5717 82.9044 39.3746 82.7645 39.2166L81.0202 32.7434C80.8978 32.1311 80.1631 31.7637 79.5508 31.8863L67.6735 35.07C67.0612 35.1924 66.6939 35.927 66.8164 36.5393L69.4573 46.3664C68.475 45.8772 67.3706 45.6003 66.2041 45.6003H30.6945C30.2047 45.6003 29.8374 45.8452 29.5925 46.335C29.3475 46.7023 29.3475 47.1921 29.5925 47.5594L31.0618 49.8858C32.1638 51.8449 32.1638 54.1715 31.0618 56.1306L29.9792 57.8449H27.0211C26.5313 57.8449 26.164 58.0899 25.9191 58.5796C25.6741 58.947 25.6741 59.4367 25.9191 59.804L27.3884 62.1305C28.4904 64.0896 28.4904 66.4162 27.3884 68.3753L25.9191 70.702C25.6741 71.0693 25.6741 71.5591 25.9191 71.9264C26.164 72.2938 26.5313 72.5387 27.0211 72.5387H29.9018L31.0618 74.3754C32.1638 76.3345 32.1638 78.6611 31.0618 80.6202L29.9792 82.3345H27.0211C26.2864 82.3345 25.7967 82.8242 25.7967 83.5589V90.9057C25.7967 91.6404 26.2864 92.1302 27.0211 92.1302H98.0402C98.7749 92.1302 99.2647 91.6404 99.2647 90.9057V83.5589C99.2648 82.8242 98.7749 82.3344 98.0402 82.3344ZM67.8222 70.2727C69.0925 68.9504 69.8774 67.1589 69.8774 65.1917C69.8774 63.2246 69.0925 61.4331 67.8222 60.1108C69.6853 59.6877 71.2853 58.5526 72.3169 57.0081L76.5383 72.7165L77.5916 76.8243C77.62 76.8809 77.6518 76.9359 77.6864 76.9888L79.1229 82.3344H71.6669C72.8364 81.032 73.5508 79.3138 73.5508 77.4365C73.5509 73.9515 71.0909 71.0151 67.8222 70.2727ZM81.5099 44.0085L72.0814 46.5799L71.4692 44.2535L80.8976 41.6821L81.5099 44.0085ZM82.1657 46.3268L87.7946 67.6238L78.3249 70.162L73.4986 52.0877C73.4151 51.3797 73.2312 50.7014 72.9593 50.0685L72.6596 48.9458L82.1657 46.3268ZM79.0611 72.5387L88.4492 70.1002L89.0641 72.4265L79.6733 74.9877L79.0611 72.5387ZM81.5099 82.0896L80.2255 77.2797L89.6771 74.7463L90.9384 79.5182L81.5099 82.0896ZM79.0611 34.5801L80.2809 39.1952L70.7389 41.7528L69.5102 37.1515L79.0611 34.5801ZM33.1435 48.539L32.8985 48.0493H66.2041C68.2226 48.0493 69.9661 49.2869 70.7134 51.0407L71.0629 52.3413C71.0878 52.54 71.102 52.7419 71.102 52.9471C71.102 55.6409 68.8979 57.8449 66.2041 57.8449H62.5307H32.8985L33.1435 57.3552C34.7352 54.6614 34.7352 51.2329 33.1435 48.539ZM29.4701 60.7838L29.2251 60.2941H30.6945H62.5307C65.2245 60.2941 67.4286 62.4981 67.4286 65.1919C67.4286 67.8857 65.2245 70.0897 62.5307 70.0897H30.6945H29.2251L29.4701 69.6C31.0618 66.9061 31.0618 63.4776 29.4701 60.7838ZM33.1435 73.0284L32.8985 72.5387H62.5307H66.2041C68.8979 72.5387 71.102 74.7427 71.102 77.4365C71.102 80.1303 68.8979 82.3344 66.2041 82.3344H32.8985L33.1435 81.8446C34.7352 79.1508 34.7352 75.7222 33.1435 73.0284ZM96.8158 89.6812H28.2455V84.7833H30.6945H66.2041H80.7754H81.0203H96.816V89.6812H96.8158Z" fill="black"/>
<path d="M39.2656 78.6609H66.2038C66.9385 78.6609 67.4282 78.1711 67.4282 77.4365C67.4282 76.7018 66.9385 76.212 66.2038 76.212H39.2656C38.5309 76.212 38.0411 76.7018 38.0411 77.4365C38.0411 78.1711 38.5309 78.6609 39.2656 78.6609Z" fill="black"/>
<path d="M35.5916 66.4161H62.5299C63.2646 66.4161 63.7543 65.9264 63.7543 65.1917C63.7543 64.457 63.2646 63.9673 62.5299 63.9673H35.5916C34.8569 63.9673 34.3672 64.457 34.3672 65.1917C34.3672 65.9264 34.8569 66.4161 35.5916 66.4161Z" fill="black"/>
<path d="M39.2656 54.1714H66.2038C66.9385 54.1714 67.4282 53.6816 67.4282 52.947C67.4282 52.2123 66.9385 51.7225 66.2038 51.7225H39.2656C38.5309 51.7225 38.0411 52.2123 38.0411 52.947C38.0411 53.6816 38.5309 54.1714 39.2656 54.1714Z" fill="black"/>
<path d="M77.2247 51.6003L81.0205 65.8041C81.2654 66.2939 81.7552 66.6612 82.2449 66.6612C82.2449 66.6612 82.3673 66.6612 82.4898 66.5388C83.1021 66.4164 83.4695 65.6817 83.3469 65.0695L79.5511 50.9881C79.4287 50.3758 78.694 50.0085 78.0817 50.131C77.4695 50.2536 77.1021 50.988 77.2247 51.6003Z" fill="black"/>
</svg>
