<svg width="125" height="125" viewBox="0 0 125 125" fill="none" xmlns="http://www.w3.org/2000/svg">
<circle cx="62.5" cy="62.5" r="62.5" fill="#E7E8EA"/>
<g clip-path="url(#clip0_32_75)">
<path d="M61.7157 63.2943C62.1494 63.7281 62.8506 63.7281 63.2843 63.2943L69.7631 56.8145C70.5663 56.0113 71.375 54.8497 71.375 53.625C71.375 51.1744 69.3881 49.1875 66.9375 49.1875C65.7128 49.1875 64.6034 49.6845 63.8002 50.4877L62.5 51.779L61.1998 50.4877C60.3966 49.6845 59.2873 49.1875 58.0625 49.1875C55.6119 49.1875 53.625 51.1744 53.625 53.625C53.625 54.8497 54.416 55.9946 55.2203 56.7967L61.7157 63.2943ZM58.0625 51.4062C58.676 51.4062 59.2307 51.6548 59.6312 52.0563L61.7157 54.132C62.1494 54.5658 62.8506 54.5658 63.2843 54.132L65.3688 52.0563C65.7693 51.6548 66.324 51.4062 66.9375 51.4062C68.1622 51.4062 69.1562 52.4002 69.1562 53.625C69.1562 54.2385 68.6226 54.8187 68.2199 55.2203L62.5 60.9402L56.7801 55.2203C56.3774 54.8187 55.8438 54.2385 55.8438 53.625C55.8438 52.4002 56.8377 51.4062 58.0625 51.4062Z" fill="#231F20"/>
<path d="M84.6875 27H40.3125C37.8397 27 35.875 29.0113 35.875 31.4375V94.6719C35.875 96.0453 36.7192 97.2789 37.9995 97.7748C39.2797 98.2707 40.7352 97.9301 41.6615 96.9161L61.405 76.9219C61.405 76.9219 61.8421 76.3672 62.5 76.3672C63.1579 76.3672 63.5972 76.9241 63.5972 76.9241L83.3385 96.9161C83.9819 97.6217 84.8805 98.0011 85.798 98.0011C86.2007 98.0011 86.6089 97.9279 87.0005 97.7759C88.2808 97.2789 89.125 96.0453 89.125 94.6719V31.4375C89.125 29.0546 87.1159 27 84.6875 27ZM86.9062 94.1172C86.9062 94.9836 85.6061 95.7469 84.6864 94.8283C83.9675 94.1083 64.7188 74.8762 64.7188 74.8762C64.7188 74.8762 63.91 73.8667 62.5 73.8667C61.1144 73.8667 60.2812 74.9283 60.2812 74.9283C60.2812 74.9283 41.3531 93.9608 40.4767 94.8361C39.6003 95.7114 38.0938 95.0358 38.0938 94.1216C38.0938 93.2175 38.0938 58.6105 38.0938 40.3125H86.9062C86.9062 58.5185 86.9062 92.8703 86.9062 94.1172ZM86.9062 38.0938H38.0938C38.0938 35.287 38.0938 32.9884 38.0938 31.4375C38.0938 30.2128 39.0877 29.2188 40.3125 29.2188H84.6875C85.9123 29.2188 86.9062 30.2128 86.9062 31.4375C86.9062 32.9884 86.9062 35.287 86.9062 38.0938Z" fill="#231F20"/>
</g>
<defs>
<clipPath id="clip0_32_75">
<rect width="71" height="71" fill="white" transform="translate(27 27)"/>
</clipPath>
</defs>
</svg>
