<svg width="125" height="125" viewBox="0 0 125 125" fill="none" xmlns="http://www.w3.org/2000/svg">
<circle cx="62.5" cy="62.5" r="62.5" fill="#E7E8EA"/>
<path d="M93.5625 27H31.4375C28.9847 27 27 28.9847 27 31.4375V93.5625C27 96.0153 28.9847 98 31.4375 98H93.5625C96.0153 98 98 96.0153 98 93.5625V31.4375C98 28.9847 96.0153 27 93.5625 27ZM95.7812 93.5625C95.7812 94.7872 94.7872 95.7812 93.5625 95.7812H31.4375C30.2127 95.7812 29.2188 94.7872 29.2188 93.5625V31.4375C29.2188 30.2127 30.2127 29.2188 31.4375 29.2188H93.5625C94.7872 29.2188 95.7812 30.2127 95.7812 31.4375V93.5625Z" fill="#231F20"/>
<path d="M92.4531 31.4375H32.5469C31.9334 31.4375 31.4375 31.9334 31.4375 32.5469V74.7031C31.4375 75.3166 31.9334 75.8125 32.5469 75.8125H46.9688V81.3594C46.9688 81.9729 47.4646 82.4688 48.0781 82.4688H76.9219C77.5354 82.4688 78.0312 81.9729 78.0312 81.3594V75.8125H92.4531C93.0666 75.8125 93.5625 75.3166 93.5625 74.7031V32.5469C93.5625 31.9334 93.0666 31.4375 92.4531 31.4375ZM91.3438 73.5938H76.9219C76.3084 73.5938 75.8125 74.0896 75.8125 74.7031V80.25H49.1875V74.7031C49.1875 74.0896 48.6916 73.5938 48.0781 73.5938H33.6562V33.6562H91.3438V73.5938Z" fill="#231F20"/>
<path d="M43.6406 44.75H81.3594C81.9729 44.75 82.4688 44.2541 82.4688 43.6406C82.4688 43.0271 81.9729 42.5312 81.3594 42.5312H43.6406C43.0271 42.5312 42.5312 43.0271 42.5312 43.6406C42.5312 44.2541 43.0271 44.75 43.6406 44.75Z" fill="#231F20"/>
<path d="M43.6406 58.0625H81.3594C81.9729 58.0625 82.4688 57.5666 82.4688 56.9531C82.4688 56.3396 81.9729 55.8438 81.3594 55.8438H43.6406C43.0271 55.8438 42.5312 56.3396 42.5312 56.9531C42.5312 57.5666 43.0271 58.0625 43.6406 58.0625Z" fill="#231F20"/>
<path d="M43.6406 64.7188H81.3594C81.9729 64.7188 82.4688 64.2229 82.4688 63.6094C82.4688 62.9959 81.9729 62.5 81.3594 62.5H43.6406C43.0271 62.5 42.5312 62.9959 42.5312 63.6094C42.5312 64.2229 43.0271 64.7188 43.6406 64.7188Z" fill="#231F20"/>
<path d="M43.6406 51.4062H81.3594C81.9729 51.4062 82.4688 50.9104 82.4688 50.2969C82.4688 49.6834 81.9729 49.1875 81.3594 49.1875H43.6406C43.0271 49.1875 42.5312 49.6834 42.5312 50.2969C42.5312 50.9104 43.0271 51.4062 43.6406 51.4062Z" fill="#231F20"/>
</svg>
