<svg width="77" height="77" viewBox="0 0 77 77" fill="none" xmlns="http://www.w3.org/2000/svg">
<path d="M26.3341 10.1111H14.9786C10.4359 10.1111 8.1629 10.1111 6.42786 10.9952C4.90163 11.7728 3.66168 13.0127 2.88407 14.539C2 16.274 2 18.547 2 23.0897V62.023C2 66.5657 2 68.836 2.88407 70.5709C3.66168 72.097 4.90163 73.3392 6.42786 74.1167C8.1612 75 10.4315 75 14.9652 75H53.9237C58.4574 75 60.7244 75 62.4578 74.1167C63.9839 73.3392 65.2281 72.0958 66.0056 70.5697C66.8889 68.8364 66.8889 66.5685 66.8889 62.0348V50.6667M50.6667 14.1667L26.3333 38.5V50.6667H38.5L62.8333 26.3333M50.6667 14.1667L62.8333 2L75 14.1667L62.8333 26.3333M50.6667 14.1667L62.8333 26.3333" stroke="#2E2E2E" stroke-width="3" stroke-linecap="round" stroke-linejoin="round"/>
</svg>
