<svg width="77" height="77" viewBox="0 0 77 77" fill="none" xmlns="http://www.w3.org/2000/svg">
<path d="M46.4633 60.1856H38.492L22.0634 51L2 58.4853L7.47965 69.4922L20.39 64.0242C32.4682 71.3414 39.8194 75 42.4442 75C45.0689 75 55.9207 70.062 75 60.1856" stroke="#2E2E2E" stroke-width="3" stroke-linecap="round" stroke-linejoin="round"/>
<path fill-rule="evenodd" clip-rule="evenodd" d="M47.9859 44C47.9859 38.6096 47.9859 35.7067 47.9859 35.2907C50.0026 34.4402 52.6475 33.1946 54.1673 31.6488C57.1531 28.6118 59 24.4163 59 19.782C59 10.5136 51.6128 3 42.5 3C33.3872 3 26 10.5136 26 19.782C26 24.4163 27.8469 28.6118 30.8327 31.6488C32.3525 33.1946 34.9833 34.4402 37 35.2907C37.0103 35.9161 37.0103 38.8192 37 44H47.9859Z" fill="white" stroke="#2E2E2E" stroke-width="3" stroke-linejoin="round"/>
<path d="M17 33L18 31" stroke="#2E2E2E" stroke-width="3" stroke-linecap="round"/>
<path d="M68 35L66 33" stroke="#2E2E2E" stroke-width="3" stroke-linecap="round"/>
<path d="M22 3L21 2" stroke="#2E2E2E" stroke-width="3" stroke-linecap="round"/>
<path d="M63 3L64 2" stroke="#2E2E2E" stroke-width="3" stroke-linecap="round"/>
<path d="M70 19H68" stroke="#2E2E2E" stroke-width="3" stroke-linecap="round"/>
<path d="M17 17H14" stroke="#2E2E2E" stroke-width="3" stroke-linecap="round"/>
</svg>
