<svg width="592" height="557" viewBox="0 0 592 557" fill="none" xmlns="http://www.w3.org/2000/svg">
<path d="M313.16 395.55C323.583 379.167 322.07 355.767 309.641 340.955C305.779 336.358 300.369 332.366 294.476 332.881C288.441 333.414 283.577 338.725 281.747 344.622C279.918 350.52 280.542 356.968 281.624 363.082C283.137 371.653 285.662 380.422 291.45 386.79C297.238 393.157 305.753 399.686 313.195 395.514" fill="#A7A9AC"/>
<path d="M307.39 474.394C309.257 469.636 309.621 464.396 308.429 459.414C307.237 454.432 304.55 449.96 300.748 446.632C298.356 444.627 295.215 443.019 292.224 443.922C289.234 444.826 287.122 447.941 286.7 451.148C286.278 454.354 287.175 457.623 288.275 460.676C289.805 464.947 291.881 469.237 295.426 471.974C298.971 474.71 303.933 477.293 307.398 474.448" fill="#A7A9AC"/>
<path d="M332.539 468.766C329.671 454.244 337.13 438.222 349.929 431.386C353.905 429.263 358.796 428.008 362.807 430.067C366.819 432.126 368.877 437.292 368.551 442.016C368.226 446.739 366.027 451.047 363.599 455.039C360.195 460.629 356.025 466.066 350.22 468.884C344.414 471.702 336.638 473.851 332.539 468.766Z" fill="#A7A9AC"/>
<path d="M330.735 429.472C325.739 412.927 334.254 392.868 348.328 383.412C352.726 380.468 358.259 378.418 363.15 380.332C368.041 382.247 371.067 388.027 371.199 393.527C371.331 399.027 369.29 404.365 366.924 409.278C363.608 416.187 359.377 423.024 352.937 426.988C346.498 430.953 336.083 434.891 330.735 429.472Z" fill="#A7A9AC"/>
<path d="M320.707 510.376C320.787 510.114 320.84 509.845 320.865 509.572C320.953 508.976 321.067 508.208 321.199 507.269C321.27 506.754 321.349 506.203 321.428 505.598L321.798 503.63C322.061 502.221 322.334 500.604 322.783 498.861C322.994 497.958 323.205 497.055 323.434 496.097L324.313 493.144C324.85 491.094 325.642 488.972 326.389 486.705C329.903 476.968 334.707 467.775 340.666 459.385C342.091 457.47 343.34 455.664 344.73 454.047C345.399 453.244 346.041 452.458 346.657 451.699L348.539 449.622C349.709 448.267 350.87 447.138 351.873 446.136L353.263 444.736L354.494 443.616L356.166 442.054C356.372 441.884 356.558 441.69 356.72 441.476C356.49 441.608 356.275 441.766 356.078 441.945L354.318 443.408L353.043 444.483L351.609 445.856C350.58 446.831 349.392 447.942 348.187 449.279L346.269 451.338L344.299 453.677C342.9 455.267 341.59 457.118 340.138 459.006C334.078 467.403 329.24 476.661 325.774 486.488C325.044 488.764 324.269 490.913 323.75 492.982C323.469 494.011 323.196 495.005 322.941 495.962C322.686 496.919 322.528 497.858 322.325 498.744C321.903 500.55 321.666 502.139 321.446 503.566C321.34 504.271 321.235 504.93 321.138 505.553C321.041 506.176 321.015 506.718 320.962 507.233C320.883 508.136 320.812 508.958 320.76 509.563C320.707 509.83 320.689 510.104 320.707 510.376Z" fill="#BCBEC0"/>
<path d="M321.077 513.345C321.089 513.237 321.089 513.128 321.077 513.02C321.077 512.758 321.033 512.442 321.007 512.063C320.927 511.159 320.813 509.931 320.672 508.387C320.602 507.583 320.514 506.698 320.417 505.732C320.32 504.765 320.32 503.699 320.268 502.562C320.18 500.286 319.969 497.703 320.048 494.84C320.048 493.401 320.048 491.896 320.048 490.324C320.048 488.771 320.206 487.145 320.276 485.465C320.391 482.096 320.839 478.529 321.226 474.772C323.265 458.47 327.851 442.612 334.808 427.809C336.471 424.431 337.993 421.189 339.69 418.308C340.517 416.854 341.256 415.418 342.074 414.099L344.44 410.324C345.901 407.877 347.449 405.808 348.724 404.002C349.375 403.099 349.956 402.196 350.536 401.437L352.155 399.351L354.407 396.389L354.97 395.63C355.039 395.545 355.099 395.45 355.146 395.35C355.146 395.35 355.058 395.422 354.917 395.585L354.301 396.298L351.97 399.116L350.299 401.166C349.701 401.934 349.103 402.792 348.434 403.704C347.123 405.51 345.54 407.579 344.036 410.026L341.626 413.792C340.79 415.111 340.042 416.547 339.198 418.001C337.438 420.882 335.925 424.124 334.236 427.511C327.19 442.365 322.583 458.312 320.602 474.709C320.224 478.493 319.801 482.078 319.722 485.456C319.661 487.145 319.529 488.78 319.529 490.342C319.529 491.905 319.529 493.413 319.529 494.858C319.485 497.739 319.731 500.331 319.845 502.607C319.925 503.745 319.969 504.801 320.057 505.777L320.373 508.432C320.567 509.976 320.725 511.196 320.831 512.099C320.892 512.478 320.936 512.794 320.971 513.002C321.007 513.21 321.059 513.354 321.077 513.345Z" fill="#BCBEC0"/>
<path d="M293.921 352.705C293.952 352.813 293.996 352.916 294.053 353.012C294.176 353.246 294.317 353.526 294.502 353.87C294.933 354.673 295.531 355.757 296.261 357.139C296.639 357.853 297.097 358.62 297.545 359.505C297.994 360.39 298.425 361.312 298.935 362.386C299.446 363.461 299.982 364.518 300.545 365.692C301.108 366.866 301.609 368.148 302.181 369.476C302.753 370.804 303.369 372.185 303.941 373.666L305.7 378.272L306.579 380.711L307.459 383.258L309.218 388.577C311.426 395.911 313.52 404.084 315.297 412.772C317.074 421.46 318.208 429.824 319.097 437.464C319.985 445.105 320.416 452.005 320.575 457.821C320.715 460.729 320.742 463.357 320.751 465.66C320.759 467.963 320.751 469.959 320.751 471.585C320.751 473.21 320.751 474.42 320.751 475.333V476.308C320.751 476.534 320.751 476.642 320.751 476.642C320.779 476.536 320.793 476.427 320.795 476.317C320.795 476.055 320.795 475.73 320.856 475.342C320.9 474.439 320.962 473.174 321.041 471.594C321.12 470.013 321.164 467.981 321.164 465.66C321.164 463.339 321.164 460.711 321.085 457.803C320.988 451.977 320.478 445.059 319.748 437.392C319.018 429.724 317.707 421.343 315.992 412.628C314.276 403.913 312.095 395.73 309.834 388.379C309.248 386.572 308.661 384.796 308.075 383.05L307.195 380.503C306.887 379.681 306.571 378.869 306.272 378.065L304.512 373.459C303.923 371.987 303.281 370.605 302.7 369.277C302.12 367.95 301.583 366.676 301.02 365.493C300.457 364.31 299.877 363.235 299.358 362.206L297.906 359.343C297.449 358.44 296.974 357.708 296.569 357.004L294.669 353.797L294.168 352.976C294.092 352.879 294.01 352.788 293.921 352.705Z" fill="#BCBEC0"/>
<path d="M297.467 453.17C297.778 453.87 298.149 454.541 298.575 455.175C299.331 456.421 300.387 458.273 301.61 460.594C302.832 462.915 304.196 465.733 305.559 468.921C307.011 472.396 308.291 475.943 309.395 479.551C310.538 483.398 311.409 487.128 312.034 490.542C312.658 493.956 313.098 497.08 313.344 499.709C313.591 502.337 313.758 504.468 313.81 505.94C313.818 506.708 313.88 507.475 313.995 508.234C314.084 507.47 314.114 506.7 314.083 505.931C314.083 504.45 314.022 502.319 313.828 499.663C313.634 497.008 313.247 493.883 312.649 490.424C311.972 486.683 311.091 482.983 310.01 479.343C308.899 475.711 307.595 472.145 306.105 468.659C304.873 465.823 303.502 463.053 301.997 460.359C300.712 458.056 299.595 456.241 298.76 455.03C298.376 454.377 297.944 453.755 297.467 453.17Z" fill="#BCBEC0"/>
<path d="M341.194 503.006H295.373L300.915 551.053H335.485L341.194 503.006Z" fill="#D1D3D4"/>
<path d="M339.522 548.812L335.626 553.996H300.915L296.912 548.974L339.522 548.812Z" fill="#D1D3D4"/>
<path d="M297.159 517.131C297.159 517.33 306.668 517.484 318.394 517.484C330.12 517.484 339.629 517.33 339.629 517.131C339.629 516.933 330.12 516.788 318.394 516.788C306.668 516.788 297.159 516.942 297.159 517.131Z" fill="#FAFAFA"/>
<path d="M297.159 520.337C297.159 520.526 306.668 520.68 318.394 520.68C330.12 520.68 339.629 520.526 339.629 520.337C339.629 520.147 330.12 519.984 318.394 519.984C306.668 519.984 297.159 520.138 297.159 520.337Z" fill="#FAFAFA"/>
<path d="M297.73 523.397C297.73 523.587 306.905 523.74 318.217 523.74C329.529 523.74 338.713 523.587 338.713 523.397C338.713 523.207 329.538 523.045 318.217 523.045C306.896 523.045 297.73 523.235 297.73 523.397Z" fill="#FAFAFA"/>
<path d="M186.991 274.511H559.55L559.479 37.8894C559.484 35.8132 559.09 33.7564 558.319 31.8369C557.548 29.9174 556.417 28.1728 554.988 26.703C553.56 25.2333 551.863 24.0672 549.996 23.2716C548.128 22.4759 546.125 22.0664 544.103 22.0664H202.297C198.219 22.0664 194.308 23.7297 191.425 26.6903C188.541 29.6509 186.921 33.6663 186.921 37.8532L186.991 274.511Z" fill="#D1D3D4"/>
<path d="M592 274.638H155.606V289.801C155.606 290.611 155.919 291.387 156.476 291.96C157.034 292.532 157.79 292.854 158.579 292.854H589.027C589.815 292.854 590.572 292.532 591.129 291.96C591.687 291.387 592 290.611 592 289.801V274.638Z" fill="#C2C3C4"/>
<mask id="mask0_47_4" style="mask-type:luminance" maskUnits="userSpaceOnUse" x="155" y="274" width="437" height="19">
<path d="M592 274.638H155.606V289.801C155.606 290.611 155.919 291.387 156.476 291.96C157.034 292.532 157.79 292.854 158.579 292.854H589.027C589.815 292.854 590.572 292.532 591.129 291.96C591.687 291.387 592 290.611 592 289.801V274.638Z" fill="white"/>
</mask>
<g mask="url(#mask0_47_4)">
<path opacity="0.2" d="M405.513 274.457H341.924V277.663C341.924 278.621 342.294 279.54 342.954 280.218C343.614 280.895 344.509 281.276 345.442 281.276H401.995C402.928 281.276 403.823 280.895 404.483 280.218C405.143 279.54 405.513 278.621 405.513 277.663V274.457Z" fill="#FAFAFA"/>
<path opacity="0.2" d="M155.068 287.083H592V296.711H155.068V287.083Z" fill="black"/>
</g>
<path d="M206.616 39.2975H540.566V258.615H206.616V39.2975Z" fill="#E6E7E8"/>
<path d="M525.199 13.9197H222.599C221.321 13.9197 220.095 14.4411 219.191 15.3693C218.287 16.2974 217.779 17.5563 217.779 18.8689V194.773C217.779 196.086 218.287 197.344 219.191 198.273C220.095 199.201 221.321 199.722 222.599 199.722H525.199C526.181 199.722 527.123 199.322 527.818 198.609C528.512 197.895 528.902 196.928 528.902 195.92V17.7219C528.902 16.7135 528.512 15.7464 527.818 15.0333C527.123 14.3203 526.181 13.9197 525.199 13.9197Z" fill="#0071F2"/>
<path d="M524.24 186.789L520.607 196.073C520.607 196.073 430.126 162.142 374.058 194.926C374.058 194.926 398.934 149.128 524.24 186.789Z" fill="#BCBEC0"/>
<path d="M519.165 196.075L227.517 195.045C227.455 195.044 227.394 195.022 227.344 194.983C227.295 194.944 227.259 194.889 227.242 194.827C227.225 194.765 227.228 194.699 227.251 194.639C227.274 194.579 227.315 194.528 227.368 194.494C234.669 190.168 286.92 162.261 374.058 194.928C374.058 194.928 400.175 175.673 455.347 181.525C455.347 181.525 477.189 181.76 519.218 195.623C519.277 195.63 519.33 195.661 519.366 195.708C519.402 195.756 519.419 195.816 519.412 195.876C519.405 195.936 519.375 195.99 519.329 196.028C519.282 196.065 519.224 196.082 519.165 196.075Z" fill="#D1D3D4"/>
<path d="M335.706 217.721H418.736C421.452 217.721 423.653 219.981 423.653 222.77V231.738C423.653 234.526 421.452 236.786 418.736 236.786H335.706C332.99 236.786 330.789 234.526 330.789 231.738V222.77C330.789 219.981 332.99 217.721 335.706 217.721Z" fill="#C2C3C4"/>
<path d="M226.488 195.044L221.861 185.543L222.574 20.0074C314.752 -20.5616 374.058 13.4416 374.058 13.4416C423.494 -20.0829 524.707 19.6642 524.707 19.6642L524.241 186.745C524.241 186.745 412.763 149.391 374.058 194.873C374.058 194.927 296.605 160.445 226.488 195.044Z" fill="#E6E7E8"/>
<path d="M503.745 30.0231C503.745 30.0231 432.045 4.99721 378.448 26.0945" stroke="#D1D3D4" stroke-miterlimit="10"/>
<path d="M503.745 46.1078C503.745 46.1078 432.045 21.0909 378.448 42.1792" stroke="#D1D3D4" stroke-miterlimit="10"/>
<path d="M503.745 59.6822C503.745 59.6822 432.045 34.6743 378.448 55.7535" stroke="#D1D3D4" stroke-miterlimit="10"/>
<path d="M503.745 75.7675C503.745 75.7675 432.045 50.7506 378.448 71.8389" stroke="#D1D3D4" stroke-miterlimit="10"/>
<path d="M503.745 88.2754C503.745 88.2754 432.045 63.2585 378.448 84.3467" stroke="#D1D3D4" stroke-miterlimit="10"/>
<path d="M503.745 104.342C503.745 104.342 432.045 79.3339 378.448 100.413" stroke="#D1D3D4" stroke-miterlimit="10"/>
<path d="M502.012 125.791C502.012 125.791 430.311 100.784 376.706 121.863" stroke="#D1D3D4" stroke-miterlimit="10"/>
<path d="M502.012 141.876C502.012 141.876 430.311 116.86 376.706 137.948" stroke="#D1D3D4" stroke-miterlimit="10"/>
<path d="M502.012 154.384C502.012 154.384 430.311 129.367 376.706 150.456" stroke="#D1D3D4" stroke-miterlimit="10"/>
<path d="M502.012 170.46C502.012 170.46 430.311 145.453 376.706 166.532" stroke="#D1D3D4" stroke-miterlimit="10"/>
<path d="M357.441 32.7322C357.441 32.7322 285.741 7.70628 232.135 28.8036" stroke="#D1D3D4" stroke-miterlimit="10"/>
<path d="M357.441 48.8169C357.441 48.8169 285.741 23.8 232.135 44.8883" stroke="#D1D3D4" stroke-miterlimit="10"/>
<path d="M357.441 62.3913C357.441 62.3913 285.741 37.3834 232.135 58.4626" stroke="#D1D3D4" stroke-miterlimit="10"/>
<path d="M357.441 78.4761C357.441 78.4761 285.741 53.4592 232.135 74.5384" stroke="#D1D3D4" stroke-miterlimit="10"/>
<path d="M357.441 90.9844C357.441 90.9844 285.741 65.9675 232.144 87.0558" stroke="#D1D3D4" stroke-miterlimit="10"/>
<path d="M357.441 107.051C357.441 107.051 285.741 82.043 232.144 103.122" stroke="#D1D3D4" stroke-miterlimit="10"/>
<path d="M355.699 128.502C355.699 128.502 284.034 103.494 230.375 124.573" stroke="#D1D3D4" stroke-miterlimit="10"/>
<path d="M355.699 144.586C355.699 144.586 284.034 119.569 230.375 140.657" stroke="#D1D3D4" stroke-miterlimit="10"/>
<path d="M355.699 157.094C355.699 157.094 284.034 132.077 230.375 153.165" stroke="#D1D3D4" stroke-miterlimit="10"/>
<path d="M355.699 173.171C355.699 173.171 284.034 148.163 230.375 169.242" stroke="#D1D3D4" stroke-miterlimit="10"/>
<path d="M354.749 104.441L355.286 6.07083C349.243 4.23439 343.066 2.90541 336.813 2.09703L337.403 105.145L345.944 95.1563L354.749 104.441Z" fill="#0071F2"/>
<path d="M31.7159 534.236C31.7235 531.66 32.5446 529.157 34.0558 527.101V515.703L263.257 515.622V527.083C264.273 528.88 264.81 530.92 264.814 532.998C264.779 535.273 264.138 537.495 262.959 539.422C261.78 541.348 260.11 542.906 258.129 543.926C258.691 544.989 258.993 546.176 259.009 547.385C258.941 549.458 258.091 551.422 256.64 552.863C255.188 554.304 253.248 555.11 251.228 555.11C249.209 555.11 247.269 554.304 245.817 552.863C244.365 551.422 243.516 549.458 243.448 547.385C243.453 546.046 243.809 544.733 244.477 543.583C242.653 542.516 241.131 540.978 240.064 539.121C238.996 537.265 238.419 535.154 238.39 532.998C238.39 530.969 238.902 528.975 239.876 527.209H56.0295C57.4767 529.238 58.2591 531.685 58.2638 534.2C58.2282 536.473 57.5862 538.693 56.4075 540.618C55.2288 542.543 53.5586 544.1 51.5784 545.119C52.1391 546.182 52.4409 547.369 52.4581 548.578C52.3902 550.65 51.5407 552.614 50.089 554.055C48.6373 555.496 46.697 556.302 44.6776 556.302C42.6582 556.302 40.7178 555.496 39.2661 554.055C37.8144 552.614 36.9649 550.65 36.8971 548.578C36.9042 547.243 37.2564 545.934 37.9175 544.784C36.0781 543.733 34.5381 542.207 33.4503 540.357C32.3625 538.506 31.7646 536.396 31.7159 534.236Z" fill="#BCBEC0"/>
<path d="M213.452 235.017H84.1431C79.2049 235.011 74.314 236.005 69.7502 237.941C65.1863 239.878 61.0391 242.719 57.5456 246.302C54.0522 249.885 51.281 254.141 49.3907 258.825C47.5004 263.509 46.528 268.529 46.5292 273.599V417.731H251.021V273.599C251.023 268.533 250.052 263.516 248.164 258.835C246.277 254.154 243.509 249.901 240.021 246.318C236.532 242.735 232.39 239.893 227.831 237.954C223.272 236.015 218.386 235.017 213.452 235.017Z" fill="#BCBEC0"/>
<path d="M182.787 255.726C182.787 255.726 179.216 252.782 165.441 252.24C165.441 252.24 162.802 245.792 162.74 241.059C162.74 241.059 169.522 238.07 174.765 227.169C174.765 227.169 172.856 234.882 178.442 240.237C178.477 240.237 183.359 245.177 182.787 255.726Z" fill="#2F2E41"/>
<path opacity="0.2" d="M182.787 255.726C182.787 255.726 179.216 252.782 165.441 252.24C165.441 252.24 162.802 245.792 162.74 241.059C162.74 241.059 169.522 238.07 174.765 227.169C174.765 227.169 172.856 234.882 178.442 240.237C178.477 240.237 183.359 245.177 182.787 255.726Z" fill="black"/>
<path d="M138.893 251.869C141.287 248.315 142.44 244.034 142.165 239.722C142.165 239.722 131.073 231.016 130.123 220.223C129.755 222.73 129.023 225.165 127.95 227.448C125.611 232.755 122.234 237.511 118.028 241.42C114.676 244.617 110.885 250.713 115.872 259.826C123.032 255.808 130.824 253.115 138.893 251.869Z" fill="#2F2E41"/>
<path opacity="0.2" d="M138.893 251.869C141.287 248.315 142.44 244.034 142.165 239.722C142.165 239.722 131.073 231.016 130.123 220.223C129.755 222.73 129.023 225.165 127.95 227.448C125.611 232.755 122.234 237.511 118.028 241.42C114.676 244.617 110.885 250.713 115.872 259.826C123.032 255.808 130.824 253.115 138.893 251.869Z" fill="black"/>
<path d="M70.1216 419.528L69.2595 407.345L227.746 407.48V418.851L70.1216 419.528Z" fill="#A7A9AC"/>
<path d="M0.00365007 392.442C-0.0676324 387.41 0.886244 382.417 2.8041 377.785C4.72195 373.153 7.56148 368.983 11.1406 365.543C14.7197 362.104 18.9594 359.47 23.5879 357.811C28.2164 356.151 33.1315 355.504 38.018 355.909C42.9046 356.314 47.6548 357.763 51.964 360.163C56.2732 362.563 60.0464 365.861 63.0416 369.846C66.0367 373.831 68.1878 378.414 69.3569 383.302C70.5259 388.191 70.6872 393.276 69.8303 398.232V419.618H228.167V392.442C228.192 386.258 229.764 380.183 232.73 374.801C235.697 369.418 239.96 364.908 245.111 361.702C250.262 358.495 256.129 356.7 262.149 356.489C268.169 356.277 274.142 357.656 279.494 360.493C284.847 363.33 289.4 367.531 292.719 372.693C296.037 377.854 298.009 383.804 298.446 389.972C298.883 396.141 297.771 402.321 295.215 407.921C292.659 413.521 288.745 418.354 283.849 421.957L279.169 502.128C278.946 505.791 277.374 509.23 274.771 511.746C272.169 514.262 268.731 515.667 265.157 515.676H32.6475C28.78 515.679 25.0618 514.143 22.2734 511.391C19.4851 508.64 17.8436 504.886 17.6934 500.918L14.6146 422.427C5.43987 415.924 0.00365007 404.77 0.00365007 392.442Z" fill="#D1D3D4"/>
<path d="M264.489 410.75C254.782 410.75 246.914 402.671 246.914 392.705C246.914 382.739 254.782 374.66 264.489 374.66C274.196 374.66 282.064 382.739 282.064 392.705C282.064 402.671 274.196 410.75 264.489 410.75Z" fill="#A7A9AC"/>
<path d="M34.4607 410.749C24.7541 410.749 16.8853 402.671 16.8853 392.705C16.8853 382.739 24.7541 374.66 34.4607 374.66C44.1674 374.66 52.0361 382.739 52.0361 392.705C52.0361 402.671 44.1674 410.749 34.4607 410.749Z" fill="#A7A9AC"/>
<path d="M70.2883 447.76H228.203V453.856H70.2883V447.76Z" fill="#A7A9AC"/>
<path d="M163.803 181.109C163.721 182.072 163.577 183.028 163.372 183.972C165.554 186.879 168.018 189.551 170.726 191.946C174.377 195.064 176.775 199.458 177.456 204.283C178.274 210.42 177.906 216.662 176.374 222.653C176.358 222.73 176.338 222.805 176.312 222.879C175.934 224.362 175.418 225.804 174.773 227.187C172.512 234.909 178.291 240.309 178.291 240.309C183.059 246.225 182.804 255.744 182.804 255.744C187.818 280.183 199.843 269.896 199.843 269.896C202.35 265.01 196.834 258.318 196.834 258.318C194.336 255.229 195.339 248.284 195.339 248.284C198.47 242.865 198.215 238.35 197.186 235.225C196.422 232.961 195.064 230.958 193.263 229.436C190.299 227.005 188.361 223.496 187.853 219.637C187.465 216.238 188.246 212.807 190.061 209.937C198.69 195.414 187.061 183.746 187.061 183.746C176.294 168.826 161.552 167.029 161.552 167.029C163.544 171.422 164.323 176.292 163.803 181.109Z" fill="#2F2E41"/>
<path d="M165.995 252.123C165.995 252.123 187.045 253.153 189.051 260.36C189.051 260.36 199.607 288.655 192.807 308.976C192.807 308.976 181.785 335.736 181.283 346.537H119.136C119.136 346.537 121.247 331.626 117.544 319.037C117.062 317.498 116.492 315.991 115.837 314.521C113.77 309.644 107.041 289.63 119.356 256.783C119.356 256.783 123.112 254.724 140.652 251.635C140.652 251.608 167.754 252.385 165.995 252.123Z" fill="#0071F2"/>
<path d="M77.4226 336.954L97.3378 341.136L115.811 314.493C115.811 314.493 106.486 293.513 119.329 256.755C119.329 256.755 110.304 258.3 102.537 276.308L81.7417 314.899C81.7417 314.899 76.4638 325.493 75.4082 334.199C75.3385 334.836 75.5083 335.475 75.8827 335.987C76.2572 336.499 76.808 336.845 77.4226 336.954Z" fill="#0071F2"/>
<path opacity="0.2" d="M77.4226 336.954L97.3378 341.136L115.811 314.493C115.811 314.493 106.486 293.513 119.329 256.755C119.329 256.755 110.304 258.3 102.537 276.308L81.7417 314.899C81.7417 314.899 76.4638 325.493 75.4082 334.199C75.3385 334.836 75.5083 335.475 75.8827 335.987C76.2572 336.499 76.808 336.845 77.4226 336.954Z" fill="black"/>
<path d="M230.851 337.478L208.596 340.883L191.003 313.554C191.003 313.554 197.548 299.718 193.642 277.853L189.781 262.897C189.191 260.445 187.8 258.274 185.84 256.747C185.161 256.225 184.403 255.822 183.597 255.555C183.5 255.555 183.509 255.401 183.597 255.392C185.822 255.284 196.009 255.952 204.655 275.532L226.453 316.959C229.349 322.915 231.258 329.325 232.101 335.925C232.119 336.111 232.101 336.299 232.048 336.479C231.995 336.658 231.908 336.824 231.791 336.969C231.675 337.113 231.532 337.233 231.371 337.32C231.21 337.408 231.033 337.461 230.851 337.478Z" fill="#0071F2"/>
<path opacity="0.2" d="M230.851 337.478L208.596 340.883L191.003 313.554C191.003 313.554 197.548 299.718 193.642 277.853L189.781 262.897C189.191 260.445 187.8 258.274 185.84 256.747C185.161 256.225 184.403 255.822 183.597 255.555C183.5 255.555 183.509 255.401 183.597 255.392C185.822 255.284 196.009 255.952 204.655 275.532L226.453 316.959C229.349 322.915 231.258 329.325 232.101 335.925C232.119 336.111 232.101 336.299 232.048 336.479C231.995 336.658 231.908 336.824 231.791 336.969C231.675 337.113 231.532 337.233 231.371 337.32C231.21 337.408 231.033 337.461 230.851 337.478Z" fill="black"/>
<path d="M162.739 241.059C162.739 241.059 163.196 248.537 166.917 254.136C167.435 254.879 167.852 255.69 168.157 256.548C169.266 259.826 170.567 267.43 161.243 272.181C158.921 273.338 156.403 274.025 153.828 274.204C147.802 274.674 136.323 274.123 135.258 263.429C134.949 260.283 135.631 257.118 137.202 254.398C137.721 253.522 138.31 252.691 138.962 251.914C140.252 250.172 141.184 248.178 141.701 246.054C142.218 243.93 142.31 241.721 141.97 239.56C141.97 239.56 149.447 247.128 162.739 241.059Z" fill="#F9B499"/>
<path d="M77.0438 337.017C77.0438 337.017 73.7891 356.57 92.8248 377.658L100.601 386.69L97.3374 341.153L77.0438 337.017Z" fill="#F9B499"/>
<path d="M229.882 337.406C229.882 337.406 234.474 350.953 219.846 370.091L204.355 390.42L208.595 340.883L229.882 337.406Z" fill="#F9B499"/>
<path d="M177.386 422.816L170.789 419.872L171.369 416.919C171.369 416.919 152.431 412.213 147.557 408.971H181.116C181.116 408.971 178.539 413.098 177.386 422.816Z" fill="#2F2E41"/>
<path opacity="0.2" d="M177.386 422.816L170.789 419.872L171.369 416.919C171.369 416.919 152.431 412.213 147.557 408.971H181.116C181.116 408.971 178.539 413.098 177.386 422.816Z" fill="black"/>
<path d="M99.3427 403.913H206.836V409.06H99.3427V403.913Z" fill="#BCBEC0"/>
<path d="M212.387 319.008H94.5135C94.3864 319.008 94.2606 319.034 94.1432 319.084C94.0258 319.134 93.9191 319.207 93.8293 319.299C93.7394 319.391 93.6682 319.501 93.6195 319.621C93.5709 319.742 93.5459 319.871 93.5459 320.002V323.126H213.354V320.002C213.354 319.738 213.252 319.485 213.071 319.299C212.889 319.113 212.643 319.008 212.387 319.008Z" fill="#E6E7E8"/>
<path d="M214.322 324.148L206.836 403.913H99.3074L92.3142 323.886C92.2786 323.497 92.3227 323.105 92.4437 322.734C92.5647 322.364 92.7599 322.024 93.0168 321.735C93.2736 321.447 93.5864 321.217 93.9351 321.06C94.2837 320.903 94.6605 320.823 95.0412 320.825L211.595 321.096C211.974 321.096 212.349 321.176 212.697 321.333C213.044 321.49 213.356 321.719 213.612 322.006C213.869 322.293 214.064 322.632 214.187 323.001C214.309 323.369 214.355 323.76 214.322 324.148Z" fill="#D1D3D4"/>
<path d="M214.111 422.518C214.111 422.518 220.989 413.974 234.756 419.275C234.756 419.275 245.945 423.692 237.342 435.478C237.342 435.478 231.316 446.965 207.795 442.54C207.795 442.54 214.964 441.366 218.122 435.18C218.122 435.18 222.995 425.462 214.111 422.518Z" fill="#0071F2"/>
<path d="M165.343 439.307L170.788 419.871C170.788 419.871 199.192 433.418 214.111 422.517C214.111 422.517 222.424 424.576 218.122 435.161C218.122 435.161 214.964 443.407 201.769 443.118C201.769 443.136 178.538 441.664 165.343 439.307Z" fill="#F9B499"/>
<path d="M171.368 416.918L165.343 439.307C165.343 439.307 107.972 430.465 84.7314 418.39C84.7314 418.39 54.0404 406.026 70.3931 385.408C70.3931 385.408 76.7002 373.044 104.814 388.063C104.814 388.063 145.55 411.328 171.368 416.918Z" fill="#2F2E41"/>
<path d="M158.104 533.983C158.104 533.983 145.137 563.787 125.856 551.504C125.856 551.504 120.006 548.036 124.448 538.77C126.218 535.18 128.902 532.149 132.215 530.001C134.595 528.374 137.122 526.989 139.763 525.864C139.763 525.864 149.562 534.95 158.104 533.983Z" fill="#0071F2"/>
<path d="M180.544 499.97L162.476 492.022C162.476 492.022 171.651 461.081 175.381 431.647C175.381 431.647 180.263 396.307 192.595 391.006C192.595 391.006 212.388 382.76 215.545 402.196C215.545 402.196 220.419 415.156 206.652 446.964L180.544 499.97Z" fill="#2F2E41"/>
<path d="M180.544 499.97C180.544 499.97 171.202 516.091 159.529 532.041C157.858 534.395 155.69 536.331 153.187 537.703C149.598 539.609 144.601 540.602 140.08 535.599C139.518 535.158 139.049 534.605 138.699 533.973C137.822 532.374 137.595 530.484 138.07 528.714C138.545 526.945 139.681 525.439 141.232 524.527C147.39 520.806 160.734 510.627 162.476 492.014L180.544 499.97Z" fill="#F9B499"/>
<path d="M163.444 245.611C163.444 245.611 162.837 242.351 162.74 241.095C162.74 241.095 152.791 244.166 145.666 240.797C145.666 240.761 154.63 247.499 163.444 245.611Z" fill="#F7A48B"/>
<path d="M128.661 210.831C128.661 228.948 139.719 243.633 153.344 243.633C163.786 243.633 172.697 235.026 176.312 222.86C176.338 222.787 176.358 222.711 176.374 222.635C177.903 216.653 178.271 210.42 177.456 204.292C176.777 199.464 174.379 195.065 170.726 191.946C168.018 189.551 165.554 186.879 163.372 183.971C163.577 183.028 163.721 182.071 163.803 181.108C160.66 179.111 157.041 178.045 153.344 178.029C139.719 178.038 128.661 192.723 128.661 210.831Z" fill="#F9B499"/>
<path d="M116.135 258.553C124.483 283.669 107.092 291.454 99.6154 293.062C96.5764 293.706 93.4144 293.266 90.6517 291.816C69.1179 280.544 77.2283 262.166 82.471 253.884C83.8223 251.872 85.3537 249.994 87.0452 248.275C88.106 247.101 88.9364 245.727 89.4906 244.229C90.7194 241.009 90.9014 237.467 90.0096 234.132C86.4294 220.666 97.3371 217.93 97.3371 217.93C105.861 213.297 107.365 201.719 107.365 201.719C105.606 177.533 118.387 169.82 118.387 169.82C141.689 152.064 154.453 160.554 154.453 160.554C164.745 165.575 165.097 177.262 163.979 183.936C163.39 187.44 160.962 190.646 158.288 192.904C154.567 196.038 147.891 200.409 136.913 203.742C136.913 203.742 127.641 207.083 130.148 220.206C130.148 220.206 130.649 229.463 121.624 238.729C121.642 238.747 112.625 248.004 116.135 258.553Z" fill="#2F2E41"/>
</svg>
