<svg width="32" height="21" viewBox="0 0 32 21" fill="none" xmlns="http://www.w3.org/2000/svg">
<path d="M31.3307 3.25436C31.1499 2.62502 30.7934 2.05062 30.2968 1.58869C29.8003 1.12675 29.1811 0.793494 28.5013 0.622289C26.0067 -1.82037e-07 16 0 16 0C16 0 5.99333 -1.82037e-07 3.49733 0.622289C2.81788 0.793799 2.19906 1.12718 1.70277 1.58908C1.20648 2.05098 0.850122 2.62522 0.669333 3.25436C0 5.57591 0 10.4186 0 10.4186C0 10.4186 0 15.2613 0.669333 17.5829C0.850115 18.2123 1.20663 18.7866 1.70319 19.2485C2.19974 19.7104 2.8189 20.0437 3.49867 20.215C5.99333 20.8372 16 20.8372 16 20.8372C16 20.8372 26.0067 20.8372 28.5027 20.215C29.1825 20.0439 29.8017 19.7106 30.2983 19.2487C30.7949 18.7867 31.1513 18.2123 31.332 17.5829C32 15.2613 32 10.4186 32 10.4186C32 10.4186 32 5.57591 31.3307 3.25436ZM12.7267 14.8152V6.02201L21.0907 10.4186L12.7267 14.8152Z" fill="#001F26"/>
</svg>
