<svg width="38" height="30" viewBox="0 0 38 30" fill="none" xmlns="http://www.w3.org/2000/svg">
<path d="M16.2186 2.13907L14.8398 0C5.29992 6.47025 0 14.3318 0 20.802C0 27.0584 4.55878 30 8.4273 30C13.3032 30 16.7477 25.828 16.7477 21.4437C16.7477 17.7543 14.4158 14.5987 11.2884 13.4214C10.3878 13.0997 9.53986 12.8327 9.53986 11.2823C9.53986 9.30409 10.9713 6.36415 16.2186 2.13907ZM37.2589 2.13907L35.88 0C26.4453 6.47025 21.0403 14.3318 21.0403 20.802C21.0403 27.0584 25.7042 30 29.5727 30C34.5012 30 38 25.828 38 21.4437C38 17.7543 35.6155 14.5987 32.3812 13.4214C31.4807 13.0997 30.6853 12.8327 30.6853 11.2823C30.6853 9.30409 32.1692 6.36244 37.2572 2.13736L37.2589 2.13907Z" fill="#DEDEDE"/>
</svg>
