<svg xmlns="http://www.w3.org/2000/svg" xmlns:xlink="http://www.w3.org/1999/xlink" width="500" zoomAndPan="magnify" viewBox="0 0 375 374.999991" height="500" preserveAspectRatio="xMidYMid meet" version="1.0"><defs><filter x="0%" y="0%" width="100%" height="100%" id="ddf4ae878d"><feColorMatrix values="0 0 0 0 1 0 0 0 0 1 0 0 0 0 1 0 0 0 1 0" color-interpolation-filters="sRGB"/></filter><g/><clipPath id="9a1d8b7529"><path d="M 82.492188 153.625 L 150.742188 153.625 L 150.742188 221.125 L 82.492188 221.125 Z M 82.492188 153.625 " clip-rule="nonzero"/></clipPath><mask id="5a227000a5"><g filter="url(#ddf4ae878d)"><rect x="-37.5" width="450" fill="#000000" y="-37.499999" height="449.999989" fill-opacity="0.1"/></g></mask><clipPath id="3b4fa90fe8"><path d="M 0.441406 45 L 63.558594 45 L 63.558594 54.960938 L 0.441406 54.960938 Z M 0.441406 45 " clip-rule="nonzero"/></clipPath><clipPath id="b03ef6fe21"><path d="M 0.441406 23 L 63.558594 23 L 63.558594 33 L 0.441406 33 Z M 0.441406 23 " clip-rule="nonzero"/></clipPath><clipPath id="b12060b822"><path d="M 0.441406 0.480469 L 63.558594 0.480469 L 63.558594 10 L 0.441406 10 Z M 0.441406 0.480469 " clip-rule="nonzero"/></clipPath><clipPath id="cc2155a5f4"><rect x="0" width="64" y="0" height="55"/></clipPath><mask id="f1aedd19a0"><g filter="url(#ddf4ae878d)"><rect x="-37.5" width="450" fill="#000000" y="-37.499999" height="449.999989" fill-opacity="0.1"/></g></mask><clipPath id="d14c0cb266"><path d="M 1 0.0390625 L 12.480469 0.0390625 L 12.480469 55.71875 L 1 55.71875 Z M 1 0.0390625 " clip-rule="nonzero"/></clipPath><clipPath id="07225abe7e"><rect x="0" width="13" y="0" height="56"/></clipPath></defs><rect x="-37.5" width="450" fill="#ffffff" y="-37.499999" height="449.999989" fill-opacity="1"/><rect x="-37.5" width="450" fill="#ffffff" y="-37.499999" height="449.999989" fill-opacity="1"/><g clip-path="url(#9a1d8b7529)"><path fill="#001f26" d="M 94.226562 156.53125 L 148.984375 156.53125 C 149.78125 156.53125 150.425781 155.886719 150.425781 155.09375 C 150.425781 154.296875 149.78125 153.652344 148.984375 153.652344 L 94.003906 153.652344 C 87.769531 153.652344 82.71875 158.703125 82.71875 164.9375 C 82.71875 171.167969 87.769531 176.21875 94.003906 176.21875 C 87.769531 176.21875 82.71875 181.273438 82.71875 187.503906 C 82.71875 193.738281 87.769531 198.789062 94.003906 198.789062 C 87.632812 198.789062 82.496094 204.066406 82.726562 210.484375 C 82.941406 216.597656 88.15625 221.359375 94.273438 221.359375 L 148.984375 221.359375 C 149.78125 221.359375 150.425781 220.714844 150.425781 219.921875 C 150.425781 219.125 149.78125 218.480469 148.984375 218.480469 L 94.226562 218.480469 C 89.527344 218.480469 85.519531 214.632812 85.597656 209.933594 C 85.675781 205.367188 89.417969 201.671875 94.003906 201.671875 L 148.984375 201.671875 C 149.78125 201.671875 150.425781 201.027344 150.425781 200.234375 L 150.425781 197.355469 C 150.425781 196.558594 149.78125 195.917969 148.984375 195.917969 L 94.226562 195.917969 C 89.523438 195.917969 85.519531 192.070312 85.597656 187.371094 C 85.671875 182.800781 89.414062 179.105469 94.003906 179.105469 L 148.984375 179.105469 C 149.78125 179.105469 150.425781 178.460938 150.425781 177.667969 L 150.425781 174.789062 C 150.425781 173.992188 149.78125 173.347656 148.984375 173.347656 L 94 173.347656 C 89.414062 173.347656 85.671875 169.65625 85.59375 165.085938 C 85.519531 160.378906 89.523438 156.53125 94.226562 156.53125 Z M 94.226562 156.53125 " fill-opacity="1" fill-rule="nonzero"/></g><path fill="#faf3e4" d="M 94.003906 173.34375 C 89.367188 173.34375 85.597656 169.570312 85.597656 164.9375 C 85.597656 160.300781 89.367188 156.53125 94.003906 156.53125 L 148.46875 156.53125 L 148.46875 173.34375 Z M 148.46875 195.910156 L 148.46875 179.097656 L 94.003906 179.097656 C 89.367188 179.097656 85.597656 182.871094 85.597656 187.503906 C 85.597656 192.136719 89.367188 195.910156 94.003906 195.910156 Z M 148.46875 218.480469 L 148.46875 201.667969 L 94.003906 201.667969 C 89.367188 201.667969 85.597656 205.441406 85.597656 210.074219 C 85.597656 214.710938 89.367188 218.480469 94.003906 218.480469 Z M 148.46875 218.480469 " fill-opacity="1" fill-rule="nonzero"/><g mask="url(#5a227000a5)"><g transform="matrix(1, 0, 0, 1, 85, 156)"><g clip-path="url(#cc2155a5f4)"><g clip-path="url(#3b4fa90fe8)"><path fill="#000000" d="M 0.59375 54.074219 C 0.59375 54.296875 0.609375 54.519531 0.628906 54.738281 C 0.964844 50.410156 4.589844 46.992188 9 46.992188 L 63.46875 46.992188 L 63.46875 45.667969 L 9.003906 45.667969 C 4.367188 45.667969 0.59375 49.441406 0.59375 54.074219 Z M 0.59375 54.074219 " fill-opacity="1" fill-rule="nonzero"/></g><g clip-path="url(#b03ef6fe21)"><path fill="#000000" d="M 0.59375 31.507812 C 0.59375 31.730469 0.609375 31.949219 0.628906 32.167969 C 0.964844 27.84375 4.589844 24.421875 9 24.421875 L 63.46875 24.421875 L 63.46875 23.097656 L 9.003906 23.097656 C 4.367188 23.101562 0.59375 26.871094 0.59375 31.507812 Z M 0.59375 31.507812 " fill-opacity="1" fill-rule="nonzero"/></g><g clip-path="url(#b12060b822)"><path fill="#000000" d="M 9.003906 0.53125 C 4.367188 0.53125 0.597656 4.304688 0.597656 8.9375 C 0.597656 9.160156 0.613281 9.382812 0.628906 9.601562 C 0.96875 5.273438 4.589844 1.855469 9.003906 1.855469 L 63.46875 1.855469 L 63.46875 0.53125 Z M 9.003906 0.53125 " fill-opacity="1" fill-rule="nonzero"/></g></g></g></g><path fill="#e6b187" d="M 148.46875 161.527344 L 92.726562 161.527344 L 92.726562 161.242188 L 148.46875 161.242188 Z M 148.46875 164.792969 L 92.726562 164.792969 L 92.726562 165.082031 L 148.46875 165.082031 Z M 148.46875 168.347656 L 92.726562 168.347656 L 92.726562 168.632812 L 148.46875 168.632812 Z M 148.46875 183.808594 L 92.726562 183.808594 L 92.726562 184.097656 L 148.46875 184.097656 Z M 148.46875 187.363281 L 92.726562 187.363281 L 92.726562 187.648438 L 148.46875 187.648438 Z M 148.46875 190.914062 L 92.726562 190.914062 L 92.726562 191.199219 L 148.46875 191.199219 Z M 148.46875 206.378906 L 92.726562 206.378906 L 92.726562 206.664062 L 148.46875 206.664062 Z M 148.46875 209.929688 L 92.726562 209.929688 L 92.726562 210.21875 L 148.46875 210.21875 Z M 148.46875 213.484375 L 92.726562 213.484375 L 92.726562 213.769531 L 148.46875 213.769531 Z M 148.46875 213.484375 " fill-opacity="1" fill-rule="nonzero"/><g mask="url(#f1aedd19a0)"><g transform="matrix(1, 0, 0, 1, 132, 161)"><g clip-path="url(#07225abe7e)"><g clip-path="url(#d14c0cb266)"><path fill="#000000" d="M 12.28125 55.417969 L 6.738281 50.621094 L 1.195312 55.417969 L 1.195312 0.242188 L 12.28125 0.242188 Z M 12.28125 55.417969 " fill-opacity="1" fill-rule="nonzero"/></g></g></g></g><path fill="#00738c" d="M 143.046875 215.011719 L 137.503906 210.214844 L 131.960938 215.011719 L 131.960938 161.242188 L 143.046875 161.242188 Z M 143.046875 215.011719 " fill-opacity="1" fill-rule="nonzero"/><g fill="#001f26" fill-opacity="1"><g transform="translate(159.995737, 183.159686)"><g><path d="M 19.625 0.484375 C 18.007812 0.484375 16.59375 0.195312 15.375 -0.375 C 14.15625 -0.957031 13.148438 -1.722656 12.359375 -2.671875 C 11.578125 -3.617188 11 -4.648438 10.625 -5.765625 L 10.140625 -5.765625 L 9.578125 0 L 2.765625 0 C 2.816406 -2.132812 2.847656 -4.0625 2.859375 -5.78125 C 2.867188 -7.5 2.878906 -9.148438 2.890625 -10.734375 C 2.910156 -12.316406 2.921875 -13.972656 2.921875 -15.703125 C 2.921875 -18.296875 2.90625 -20.816406 2.875 -23.265625 C 2.851562 -25.710938 2.816406 -28.113281 2.765625 -30.46875 L 10.796875 -31.1875 L 10.75 -25.953125 C 10.75 -25.222656 10.710938 -24.59375 10.640625 -24.0625 C 10.578125 -23.539062 10.503906 -23.015625 10.421875 -22.484375 C 10.335938 -21.960938 10.242188 -21.347656 10.140625 -20.640625 L 10.703125 -20.640625 C 11.273438 -22.128906 12.066406 -23.316406 13.078125 -24.203125 C 14.097656 -25.097656 15.207031 -25.75 16.40625 -26.15625 C 17.613281 -26.5625 18.785156 -26.765625 19.921875 -26.765625 C 22.160156 -26.765625 23.941406 -26.203125 25.265625 -25.078125 C 26.597656 -23.960938 27.550781 -22.382812 28.125 -20.34375 C 28.707031 -18.300781 29 -15.898438 29 -13.140625 C 29 -8.867188 28.222656 -5.53125 26.671875 -3.125 C 25.117188 -0.71875 22.769531 0.484375 19.625 0.484375 Z M 16.21875 -5.15625 C 17.601562 -5.15625 18.753906 -5.53125 19.671875 -6.28125 C 20.128906 -7.175781 20.492188 -8.195312 20.765625 -9.34375 C 21.035156 -10.5 21.171875 -11.738281 21.171875 -13.0625 C 21.171875 -13.875 21.097656 -14.71875 20.953125 -15.59375 C 20.804688 -16.476562 20.5625 -17.296875 20.21875 -18.046875 C 19.882812 -18.804688 19.429688 -19.414062 18.859375 -19.875 C 18.296875 -20.332031 17.609375 -20.5625 16.796875 -20.5625 C 15.472656 -20.5625 14.289062 -20.175781 13.25 -19.40625 C 12.207031 -18.632812 11.375 -17.628906 10.75 -16.390625 C 10.71875 -15.734375 10.6875 -15.132812 10.65625 -14.59375 C 10.632812 -14.0625 10.625 -13.320312 10.625 -12.375 C 10.625 -10.664062 10.9375 -9.285156 11.5625 -8.234375 C 12.1875 -7.179688 12.929688 -6.40625 13.796875 -5.90625 C 14.660156 -5.40625 15.46875 -5.15625 16.21875 -5.15625 Z M 16.21875 -5.15625 "/></g></g></g><g fill="#001f26" fill-opacity="1"><g transform="translate(190.698574, 183.159686)"><g><path d="M 14.890625 0.484375 C 10.640625 0.484375 7.382812 -0.671875 5.125 -2.984375 C 2.875 -5.296875 1.75 -8.65625 1.75 -13.0625 C 1.75 -17.5 2.875 -20.898438 5.125 -23.265625 C 7.382812 -25.628906 10.640625 -26.8125 14.890625 -26.8125 C 19.242188 -26.8125 22.578125 -25.632812 24.890625 -23.28125 C 27.203125 -20.925781 28.359375 -17.535156 28.359375 -13.109375 C 28.359375 -8.691406 27.203125 -5.320312 24.890625 -3 C 22.578125 -0.675781 19.242188 0.484375 14.890625 0.484375 Z M 15.578125 -5.109375 C 16.222656 -5.109375 16.847656 -5.203125 17.453125 -5.390625 C 18.066406 -5.578125 18.59375 -5.863281 19.03125 -6.25 C 19.488281 -7.132812 19.84375 -8.148438 20.09375 -9.296875 C 20.351562 -10.453125 20.484375 -11.734375 20.484375 -13.140625 C 20.484375 -15.679688 19.96875 -17.660156 18.9375 -19.078125 C 17.914062 -20.503906 16.414062 -21.21875 14.4375 -21.21875 C 12.875 -21.21875 11.601562 -20.660156 10.625 -19.546875 C 10.300781 -18.660156 10.050781 -17.6875 9.875 -16.625 C 9.695312 -15.570312 9.609375 -14.410156 9.609375 -13.140625 C 9.609375 -10.597656 10.109375 -8.625 11.109375 -7.21875 C 12.109375 -5.8125 13.597656 -5.109375 15.578125 -5.109375 Z M 15.578125 -5.109375 "/></g></g></g><g fill="#001f26" fill-opacity="1"><g transform="translate(220.752474, 183.159686)"><g><path d="M 14.890625 0.484375 C 10.640625 0.484375 7.382812 -0.671875 5.125 -2.984375 C 2.875 -5.296875 1.75 -8.65625 1.75 -13.0625 C 1.75 -17.5 2.875 -20.898438 5.125 -23.265625 C 7.382812 -25.628906 10.640625 -26.8125 14.890625 -26.8125 C 19.242188 -26.8125 22.578125 -25.632812 24.890625 -23.28125 C 27.203125 -20.925781 28.359375 -17.535156 28.359375 -13.109375 C 28.359375 -8.691406 27.203125 -5.320312 24.890625 -3 C 22.578125 -0.675781 19.242188 0.484375 14.890625 0.484375 Z M 15.578125 -5.109375 C 16.222656 -5.109375 16.847656 -5.203125 17.453125 -5.390625 C 18.066406 -5.578125 18.59375 -5.863281 19.03125 -6.25 C 19.488281 -7.132812 19.84375 -8.148438 20.09375 -9.296875 C 20.351562 -10.453125 20.484375 -11.734375 20.484375 -13.140625 C 20.484375 -15.679688 19.96875 -17.660156 18.9375 -19.078125 C 17.914062 -20.503906 16.414062 -21.21875 14.4375 -21.21875 C 12.875 -21.21875 11.601562 -20.660156 10.625 -19.546875 C 10.300781 -18.660156 10.050781 -17.6875 9.875 -16.625 C 9.695312 -15.570312 9.609375 -14.410156 9.609375 -13.140625 C 9.609375 -10.597656 10.109375 -8.625 11.109375 -7.21875 C 12.109375 -5.8125 13.597656 -5.109375 15.578125 -5.109375 Z M 15.578125 -5.109375 "/></g></g></g><g fill="#001f26" fill-opacity="1"><g transform="translate(250.806374, 183.159686)"><g><path d="M 2.765625 0 C 2.785156 -2.4375 2.800781 -4.9375 2.8125 -7.5 C 2.832031 -10.070312 2.84375 -12.75 2.84375 -15.53125 C 2.84375 -18.320312 2.832031 -20.890625 2.8125 -23.234375 C 2.800781 -25.585938 2.785156 -28 2.765625 -30.46875 L 10.90625 -31.1875 C 10.882812 -29.894531 10.859375 -28.71875 10.828125 -27.65625 C 10.804688 -26.601562 10.773438 -25.519531 10.734375 -24.40625 C 10.691406 -23.300781 10.65625 -22.046875 10.625 -20.640625 C 10.601562 -19.234375 10.578125 -17.519531 10.546875 -15.5 L 12.453125 -15.5 L 19.75 -26.28125 L 27.984375 -26.28125 C 26.878906 -24.632812 25.695312 -22.929688 24.4375 -21.171875 C 23.175781 -19.410156 21.910156 -17.65625 20.640625 -15.90625 C 20.234375 -15.28125 19.648438 -14.789062 18.890625 -14.4375 C 18.140625 -14.082031 17.019531 -13.878906 15.53125 -13.828125 L 15.53125 -13.390625 C 17.050781 -13.359375 18.164062 -13.144531 18.875 -12.75 C 19.59375 -12.363281 20.171875 -11.84375 20.609375 -11.1875 C 22.015625 -9.269531 23.382812 -7.40625 24.71875 -5.59375 C 26.0625 -3.78125 27.410156 -1.914062 28.765625 0 L 20.15625 0 L 12.5 -11.5625 L 10.546875 -11.5625 C 10.578125 -10.832031 10.597656 -10.003906 10.609375 -9.078125 C 10.617188 -8.160156 10.648438 -6.984375 10.703125 -5.546875 C 10.765625 -4.117188 10.832031 -2.269531 10.90625 0 Z M 2.765625 0 "/></g></g></g><g fill="#001f26" fill-opacity="1"><g transform="translate(159.995737, 216.909684)"><g><path d="M 13.21875 0.484375 C 9.625 0.484375 6.796875 -0.316406 4.734375 -1.921875 C 2.679688 -3.535156 1.507812 -5.84375 1.21875 -8.84375 L 8.390625 -9.484375 C 8.691406 -8.140625 9.28125 -7.066406 10.15625 -6.265625 C 11.039062 -5.460938 12.390625 -5.0625 14.203125 -5.0625 C 14.984375 -5.0625 15.664062 -5.132812 16.25 -5.28125 C 16.832031 -5.4375 17.363281 -5.625 17.84375 -5.84375 C 18.113281 -6.25 18.3125 -6.640625 18.4375 -7.015625 C 18.5625 -7.390625 18.625 -7.863281 18.625 -8.4375 C 18.625 -9.382812 18.15625 -10.039062 17.21875 -10.40625 C 16.28125 -10.769531 14.691406 -11.03125 12.453125 -11.1875 C 9.609375 -11.351562 7.410156 -11.785156 5.859375 -12.484375 C 4.304688 -13.191406 3.234375 -14.113281 2.640625 -15.25 C 2.046875 -16.382812 1.75 -17.679688 1.75 -19.140625 C 1.75 -20.660156 2.234375 -21.992188 3.203125 -23.140625 C 4.179688 -24.285156 5.554688 -25.179688 7.328125 -25.828125 C 9.097656 -26.484375 11.15625 -26.8125 13.5 -26.8125 C 17.445312 -26.8125 20.46875 -26.046875 22.5625 -24.515625 C 24.664062 -22.992188 25.894531 -20.335938 26.25 -16.546875 L 19.140625 -15.78125 C 18.867188 -17.476562 18.304688 -18.804688 17.453125 -19.765625 C 16.609375 -20.734375 15.144531 -21.21875 13.0625 -21.21875 C 12.46875 -21.21875 11.910156 -21.15625 11.390625 -21.03125 C 10.878906 -20.90625 10.445312 -20.75 10.09375 -20.5625 C 9.5 -19.726562 9.203125 -18.769531 9.203125 -17.6875 C 9.203125 -17.175781 9.335938 -16.707031 9.609375 -16.28125 C 9.878906 -15.863281 10.410156 -15.523438 11.203125 -15.265625 C 12.003906 -15.015625 13.164062 -14.820312 14.6875 -14.6875 C 17.144531 -14.519531 19.097656 -14.226562 20.546875 -13.8125 C 21.992188 -13.394531 23.0625 -12.867188 23.75 -12.234375 C 24.4375 -11.597656 24.890625 -10.875 25.109375 -10.0625 C 25.328125 -9.25 25.4375 -8.367188 25.4375 -7.421875 C 25.4375 -5.773438 24.914062 -4.351562 23.875 -3.15625 C 22.832031 -1.96875 21.390625 -1.0625 19.546875 -0.4375 C 17.710938 0.175781 15.601562 0.484375 13.21875 0.484375 Z M 13.21875 0.484375 "/></g></g></g><g fill="#001f26" fill-opacity="1"><g transform="translate(187.41333, 216.909684)"><g><path d="M 2.765625 5.265625 C 2.816406 2.835938 2.847656 0.015625 2.859375 -3.203125 C 2.867188 -6.421875 2.875 -9.734375 2.875 -13.140625 C 2.875 -15.953125 2.867188 -18.382812 2.859375 -20.4375 C 2.847656 -22.5 2.816406 -24.4375 2.765625 -26.25 L 10.953125 -26.25 C 10.847656 -25.4375 10.710938 -24.476562 10.546875 -23.375 C 10.378906 -22.28125 10.242188 -21.34375 10.140625 -20.5625 L 10.671875 -20.5625 C 11.148438 -21.695312 11.789062 -22.726562 12.59375 -23.65625 C 13.394531 -24.59375 14.394531 -25.34375 15.59375 -25.90625 C 16.800781 -26.476562 18.269531 -26.765625 20 -26.765625 C 22.1875 -26.765625 23.9375 -26.179688 25.25 -25.015625 C 26.5625 -23.859375 27.507812 -22.253906 28.09375 -20.203125 C 28.675781 -18.148438 28.96875 -15.769531 28.96875 -13.0625 C 28.96875 -8.757812 28.175781 -5.425781 26.59375 -3.0625 C 25.007812 -0.695312 22.648438 0.484375 19.515625 0.484375 C 17.210938 0.484375 15.300781 -0.117188 13.78125 -1.328125 C 12.269531 -2.546875 11.234375 -4.023438 10.671875 -5.765625 L 10.1875 -5.765625 C 10.34375 -4.703125 10.488281 -3.585938 10.625 -2.421875 C 10.757812 -1.265625 10.84375 0.0390625 10.875 1.5 L 10.90625 5.265625 Z M 16.0625 -5.15625 C 16.6875 -5.15625 17.320312 -5.253906 17.96875 -5.453125 C 18.613281 -5.660156 19.179688 -5.9375 19.671875 -6.28125 C 20.128906 -7.144531 20.492188 -8.140625 20.765625 -9.265625 C 21.035156 -10.390625 21.171875 -11.65625 21.171875 -13.0625 C 21.171875 -13.789062 21.097656 -14.585938 20.953125 -15.453125 C 20.804688 -16.316406 20.5625 -17.132812 20.21875 -17.90625 C 19.882812 -18.675781 19.410156 -19.3125 18.796875 -19.8125 C 18.191406 -20.3125 17.429688 -20.5625 16.515625 -20.5625 C 15.023438 -20.5625 13.828125 -20.148438 12.921875 -19.328125 C 12.015625 -18.503906 11.289062 -17.535156 10.75 -16.421875 C 10.71875 -15.910156 10.6875 -15.484375 10.65625 -15.140625 C 10.632812 -14.804688 10.617188 -14.441406 10.609375 -14.046875 C 10.597656 -13.660156 10.59375 -13.101562 10.59375 -12.375 C 10.59375 -10.96875 10.851562 -9.71875 11.375 -8.625 C 11.90625 -7.53125 12.585938 -6.675781 13.421875 -6.0625 C 14.265625 -5.457031 15.144531 -5.15625 16.0625 -5.15625 Z M 16.0625 -5.15625 "/></g></g></g><g fill="#001f26" fill-opacity="1"><g transform="translate(218.075609, 216.909684)"><g><path d="M 9.6875 0.5625 C 8.125 0.5625 6.742188 0.285156 5.546875 -0.265625 C 4.359375 -0.816406 3.425781 -1.597656 2.75 -2.609375 C 2.082031 -3.628906 1.75 -4.816406 1.75 -6.171875 C 1.75 -8.648438 2.785156 -10.554688 4.859375 -11.890625 C 6.941406 -13.234375 9.863281 -13.90625 13.625 -13.90625 C 14.4375 -13.90625 15.296875 -13.882812 16.203125 -13.84375 C 17.109375 -13.8125 18.101562 -13.765625 19.1875 -13.703125 L 19.1875 -14.3125 C 19.1875 -15.53125 19.050781 -16.644531 18.78125 -17.65625 C 18.507812 -18.675781 17.988281 -19.488281 17.21875 -20.09375 C 16.445312 -20.707031 15.273438 -21.015625 13.703125 -21.015625 C 12.703125 -20.847656 11.863281 -20.484375 11.1875 -19.921875 C 10.519531 -18.785156 10.0625 -17.210938 9.8125 -15.203125 L 2.265625 -16.3125 C 2.671875 -19.820312 3.984375 -22.457031 6.203125 -24.21875 C 8.421875 -25.976562 11.367188 -26.859375 15.046875 -26.859375 C 17.941406 -26.859375 20.257812 -26.375 22 -25.40625 C 23.75 -24.445312 25.007812 -23.054688 25.78125 -21.234375 C 26.550781 -19.410156 26.9375 -17.1875 26.9375 -14.5625 C 26.9375 -12.914062 26.941406 -11.507812 26.953125 -10.34375 C 26.960938 -9.175781 26.96875 -7.972656 26.96875 -6.734375 C 27 -5.328125 27.015625 -4.078125 27.015625 -2.984375 C 27.015625 -1.890625 27.015625 -0.894531 27.015625 0 L 19.109375 0 L 19.71875 -6.203125 L 19.1875 -6.203125 C 18.75 -5.046875 18.117188 -3.945312 17.296875 -2.90625 C 16.472656 -1.863281 15.4375 -1.023438 14.1875 -0.390625 C 12.945312 0.242188 11.445312 0.5625 9.6875 0.5625 Z M 12.5 -5.265625 C 13.382812 -5.265625 14.207031 -5.441406 14.96875 -5.796875 C 15.726562 -6.148438 16.394531 -6.566406 16.96875 -7.046875 C 17.550781 -7.535156 18.039062 -8.015625 18.4375 -8.484375 C 18.832031 -8.960938 19.097656 -9.328125 19.234375 -9.578125 L 19.234375 -10.828125 C 18.847656 -10.859375 18.359375 -10.878906 17.765625 -10.890625 C 17.171875 -10.898438 16.6875 -10.90625 16.3125 -10.90625 C 15.28125 -10.90625 14.222656 -10.835938 13.140625 -10.703125 C 12.054688 -10.566406 11.15625 -10.28125 10.4375 -9.84375 C 9.726562 -9.414062 9.375 -8.726562 9.375 -7.78125 C 9.375 -6.863281 9.660156 -6.210938 10.234375 -5.828125 C 10.816406 -5.453125 11.570312 -5.265625 12.5 -5.265625 Z M 12.5 -5.265625 "/></g></g></g><g fill="#001f26" fill-opacity="1"><g transform="translate(247.440013, 216.909684)"><g><path d="M 14.40625 0.484375 C 10.476562 0.484375 7.382812 -0.632812 5.125 -2.875 C 2.875 -5.125 1.75 -8.535156 1.75 -13.109375 C 1.75 -17.535156 2.867188 -20.925781 5.109375 -23.28125 C 7.359375 -25.632812 10.710938 -26.8125 15.171875 -26.8125 C 19.015625 -26.8125 21.898438 -25.945312 23.828125 -24.21875 C 25.765625 -22.488281 26.945312 -19.769531 27.375 -16.0625 L 19.796875 -15.40625 C 19.222656 -19.28125 17.476562 -21.21875 14.5625 -21.21875 C 12.988281 -21.21875 11.648438 -20.6875 10.546875 -19.625 C 10.222656 -18.601562 9.984375 -17.59375 9.828125 -16.59375 C 9.679688 -15.59375 9.609375 -14.414062 9.609375 -13.0625 C 9.609375 -10.757812 10.0625 -8.867188 10.96875 -7.390625 C 11.875 -5.921875 13.273438 -5.1875 15.171875 -5.1875 C 15.796875 -5.1875 16.429688 -5.28125 17.078125 -5.46875 C 17.722656 -5.664062 18.265625 -5.9375 18.703125 -6.28125 C 18.992188 -6.957031 19.226562 -7.625 19.40625 -8.28125 C 19.582031 -8.945312 19.722656 -9.6875 19.828125 -10.5 L 27.421875 -10.5 C 27.066406 -6.800781 25.878906 -4.046875 23.859375 -2.234375 C 21.847656 -0.421875 18.695312 0.484375 14.40625 0.484375 Z M 14.40625 0.484375 "/></g></g></g><g fill="#001f26" fill-opacity="1"><g transform="translate(276.561071, 216.909684)"><g><path d="M 27.375 -13.21875 L 9.578125 -13.140625 L 9.578125 -12.984375 C 9.578125 -10.679688 10.03125 -8.800781 10.9375 -7.34375 C 11.84375 -5.882812 13.238281 -5.15625 15.125 -5.15625 C 15.75 -5.15625 16.367188 -5.253906 16.984375 -5.453125 C 17.609375 -5.660156 18.15625 -5.9375 18.625 -6.28125 C 19.1875 -7.613281 19.550781 -9.019531 19.71875 -10.5 L 27.265625 -10.34375 C 27.015625 -7.988281 26.429688 -6.003906 25.515625 -4.390625 C 24.597656 -2.785156 23.238281 -1.570312 21.4375 -0.75 C 19.632812 0.0703125 17.289062 0.484375 14.40625 0.484375 C 10.289062 0.484375 7.148438 -0.625 4.984375 -2.84375 C 2.828125 -5.0625 1.75 -8.453125 1.75 -13.015625 C 1.75 -17.617188 2.882812 -21.054688 5.15625 -23.328125 C 7.425781 -25.597656 10.765625 -26.734375 15.171875 -26.734375 C 19.203125 -26.734375 22.242188 -25.585938 24.296875 -23.296875 C 26.347656 -21.015625 27.375 -17.859375 27.375 -13.828125 L 27.21875 -13.828125 Z M 14.5625 -21.171875 C 13.800781 -21.171875 13.066406 -21.03125 12.359375 -20.75 C 11.660156 -20.46875 11.039062 -20.082031 10.5 -19.59375 C 10.3125 -19.050781 10.160156 -18.503906 10.046875 -17.953125 C 9.941406 -17.398438 9.851562 -16.835938 9.78125 -16.265625 L 19.515625 -16.265625 C 19.160156 -17.835938 18.578125 -19.046875 17.765625 -19.890625 C 16.953125 -20.742188 15.882812 -21.171875 14.5625 -21.171875 Z M 14.5625 -21.171875 "/></g></g></g></svg>