<svg width="80" height="39" viewBox="0 0 80 39" fill="none" xmlns="http://www.w3.org/2000/svg">
<path d="M10.9492 17.592C10.0509 17.592 9.26549 17.4314 8.58854 17.1147C7.91159 16.7914 7.3518 16.3661 6.91352 15.8389C6.47958 15.3138 6.15846 14.741 5.95017 14.1205H5.68113L5.36869 17.323H1.58472C1.61292 16.1383 1.63028 15.0665 1.63679 14.1118C1.64113 13.1571 1.64764 12.2415 1.65415 11.3606C1.665 10.4819 1.67151 9.56191 1.67151 8.60073C1.67151 7.16004 1.66283 5.76058 1.64547 4.40017C1.63245 3.04193 1.61292 1.70756 1.58472 0.399226L6.04564 0L6.0196 2.90741C6.0196 3.31315 5.99791 3.66247 5.95885 3.95755C5.92414 4.24829 5.88291 4.53903 5.83735 4.83411C5.78961 5.12485 5.73754 5.4655 5.68113 5.85821H5.99357C6.31034 5.03156 6.75079 4.37196 7.31275 3.87944C7.87904 3.38258 8.49524 3.02023 9.16134 2.79459C9.83178 2.56894 10.4827 2.45611 11.1141 2.45611C12.3573 2.45611 13.3467 2.76855 14.0822 3.39342C14.8221 4.01396 15.3515 4.89052 15.6705 6.02311C15.9938 7.15787 16.1565 8.49224 16.1565 10.0241C16.1565 12.3977 15.7247 14.2506 14.8633 15.5872C13.9998 16.9237 12.6958 17.592 10.9492 17.592ZM9.0572 14.4589C9.82527 14.4589 10.4653 14.2506 10.9752 13.8341C11.2291 13.3372 11.4309 12.7709 11.5827 12.133C11.7324 11.4908 11.8084 10.803 11.8084 10.0674C11.8084 9.61615 11.7672 9.14749 11.6869 8.66148C11.6044 8.17112 11.4699 7.71549 11.279 7.2989C11.0924 6.87798 10.8407 6.5395 10.5239 6.28348C10.2115 6.02962 9.82961 5.90161 9.37831 5.90161C8.64278 5.90161 7.98536 6.11641 7.40822 6.54384C6.8289 6.97344 6.36676 7.53106 6.0196 8.21886C6.00224 8.58337 5.98489 8.9175 5.96753 9.21692C5.95451 9.512 5.95017 9.92425 5.95017 10.4493C5.95017 11.3997 6.12375 12.1656 6.4709 12.7492C6.81806 13.335 7.2303 13.7646 7.71198 14.0424C8.19148 14.3201 8.64061 14.4589 9.0572 14.4589Z" fill="#001F26"/>
<path d="M25.3719 17.592C23.0113 17.592 21.2017 16.9497 19.9476 15.6653C18.6979 14.3808 18.073 12.5149 18.073 10.0674C18.073 7.60264 18.6979 5.71499 19.9476 4.40015C21.2017 3.08748 23.0113 2.43005 25.3719 2.43005C27.789 2.43005 29.6419 3.08531 30.9264 4.39147C32.2108 5.69981 32.8531 7.58311 32.8531 10.0414C32.8531 12.4953 32.2108 14.3678 30.9264 15.6566C29.6419 16.9476 27.789 17.592 25.3719 17.592ZM25.7538 14.485C26.1118 14.485 26.4589 14.4329 26.7952 14.3287C27.1359 14.2246 27.4288 14.0662 27.6718 13.8514C27.9256 13.361 28.1231 12.7969 28.262 12.159C28.4052 11.5168 28.4789 10.8051 28.4789 10.024C28.4789 8.61372 28.1925 7.51368 27.6197 6.72608C27.0513 5.93413 26.2181 5.53708 25.1202 5.53708C24.2523 5.53708 23.545 5.84735 23.0026 6.46571C22.8225 6.95824 22.6836 7.49849 22.586 8.08866C22.4862 8.67448 22.4385 9.31888 22.4385 10.024C22.4385 11.4365 22.7162 12.5322 23.2716 13.3133C23.8271 14.0944 24.6537 14.485 25.7538 14.485Z" fill="#001F26"/>
<path d="M42.0662 17.592C39.7056 17.592 37.8961 16.9497 36.642 15.6653C35.3922 14.3808 34.7673 12.5149 34.7673 10.0674C34.7673 7.60264 35.3922 5.71499 36.642 4.40015C37.8961 3.08748 39.7056 2.43005 42.0662 2.43005C44.4833 2.43005 46.3362 3.08531 47.6207 4.39147C48.9052 5.69981 49.5474 7.58311 49.5474 10.0414C49.5474 12.4953 48.9052 14.3678 47.6207 15.6566C46.3362 16.9476 44.4833 17.592 42.0662 17.592ZM42.4481 14.485C42.8061 14.485 43.1533 14.4329 43.4896 14.3287C43.8302 14.2246 44.1231 14.0662 44.3661 13.8514C44.62 13.361 44.8174 12.7969 44.9563 12.159C45.0995 11.5168 45.1733 10.8051 45.1733 10.024C45.1733 8.61372 44.8869 7.51368 44.3141 6.72608C43.7456 5.93413 42.9124 5.53708 41.8145 5.53708C40.9467 5.53708 40.2393 5.84735 39.6969 6.46571C39.5168 6.95824 39.378 7.49849 39.2803 8.08866C39.1805 8.67448 39.1328 9.31888 39.1328 10.024C39.1328 11.4365 39.4105 12.5322 39.966 13.3133C40.5214 14.0944 41.3481 14.485 42.4481 14.485Z" fill="#001F26"/>
<path d="M52.0251 17.323C52.036 15.9691 52.0447 14.5804 52.0512 13.1571C52.062 11.7294 52.0685 10.241 52.0685 8.69619C52.0685 7.14702 52.062 5.71935 52.0512 4.41753C52.0447 3.11136 52.036 1.77048 52.0251 0.399226L56.5468 0C56.5338 0.718174 56.5208 1.37126 56.5034 1.96142C56.4904 2.54724 56.4731 3.14825 56.4514 3.76662C56.4275 4.38064 56.408 5.07712 56.3906 5.85821C56.3776 6.63931 56.3646 7.59181 56.3472 8.71355H57.406L61.459 2.72515H66.0328C65.4188 3.64077 64.7613 4.58676 64.0627 5.56313C63.3619 6.54167 62.6589 7.51587 61.9537 8.4879C61.7281 8.83506 61.4026 9.10844 60.9817 9.30371C60.5651 9.50116 59.9424 9.61398 59.1158 9.64219V9.8852C59.9598 9.90255 60.5781 10.0219 60.973 10.241C61.3723 10.4558 61.6934 10.7444 61.9364 11.1089C62.7175 12.1742 63.4769 13.2092 64.2189 14.2159C64.9653 15.2227 65.7138 16.2598 66.4667 17.323H61.6847L57.4321 10.9006H56.3472C56.3646 11.3064 56.3754 11.7663 56.3819 12.2806C56.3863 12.7904 56.4036 13.4435 56.434 14.242C56.4687 15.0361 56.5056 16.0624 56.5468 17.323H52.0251Z" fill="#001F26"/>
<path d="M7.39166 36.3383C5.39553 36.3383 3.82466 35.8935 2.67906 35.0018C1.53779 34.1057 0.886877 32.8234 0.726318 31.1571L4.7099 30.8012C4.87697 31.5476 5.2046 32.1443 5.69061 32.5891C6.18097 33.036 6.93169 33.2573 7.93843 33.2573C8.37237 33.2573 8.7499 33.2183 9.07536 33.1358C9.39865 33.049 9.69373 32.9449 9.9606 32.8234C10.1103 32.5977 10.221 32.3808 10.2904 32.1725C10.3598 31.9642 10.3945 31.7017 10.3945 31.3827C10.3945 30.8576 10.1342 30.4931 9.61345 30.2892C9.09272 30.0874 8.20965 29.942 6.9664 29.8552C5.38685 29.7641 4.16531 29.5233 3.30393 29.1349C2.44039 28.7422 1.84589 28.2301 1.51609 27.5987C1.1863 26.9695 1.0214 26.2492 1.0214 25.4377C1.0214 24.5937 1.29044 23.8538 1.82853 23.2159C2.37096 22.5802 3.1347 22.0833 4.11974 21.7232C5.10262 21.3586 6.24606 21.1764 7.54788 21.1764C9.73929 21.1764 11.4186 21.6017 12.5816 22.4522C13.7489 23.2984 14.4324 24.7738 14.6298 26.8784L10.6809 27.3037C10.5291 26.362 10.2166 25.6243 9.74363 25.0905C9.27497 24.5525 8.46133 24.2834 7.30488 24.2834C6.97508 24.2834 6.66481 24.3181 6.37624 24.3876C6.09201 24.457 5.85117 24.5438 5.6559 24.6479C5.3261 25.1122 5.1612 25.6438 5.1612 26.2448C5.1612 26.5291 5.23497 26.7894 5.38685 27.0259C5.53656 27.2581 5.83164 27.4469 6.2721 27.5901C6.71689 27.7289 7.36129 27.8374 8.20748 27.9112C9.57222 28.0045 10.6571 28.1672 11.462 28.3972C12.2648 28.6293 12.8593 28.9223 13.2412 29.2737C13.6231 29.6274 13.8748 30.0288 13.9963 30.4801C14.1178 30.9314 14.1785 31.4218 14.1785 31.9468C14.1785 32.8624 13.8878 33.6522 13.3106 34.3162C12.7313 34.9757 11.9307 35.4791 10.9066 35.8263C9.88683 36.1669 8.71519 36.3383 7.39166 36.3383Z" fill="#001F26"/>
<path d="M16.8123 38.994C16.8405 37.6444 16.8578 36.0779 16.8643 34.2901C16.8687 32.5022 16.873 30.6623 16.873 28.7703C16.873 27.2081 16.8687 25.8586 16.8643 24.7173C16.8578 23.5717 16.8405 22.4955 16.8123 21.4888H21.36C21.3014 21.9401 21.2254 22.4738 21.1343 23.0857C21.041 23.6932 20.9651 24.2139 20.9087 24.6479H21.2037C21.4685 24.0187 21.8243 23.4459 22.2712 22.9295C22.716 22.4088 23.2715 21.9922 23.9376 21.6797C24.608 21.363 25.4238 21.2024 26.385 21.2024C27.6 21.2024 28.5721 21.5278 29.3011 22.1744C30.0301 22.8167 30.5552 23.7084 30.8806 24.8475C31.2039 25.9888 31.3667 27.3101 31.3667 28.8137C31.3667 31.2048 30.9262 33.0555 30.0475 34.3682C29.1666 35.683 27.8561 36.3383 26.116 36.3383C24.8358 36.3383 23.7749 36.0041 22.9308 35.3315C22.0912 34.6546 21.5162 33.8344 21.2037 32.8667H20.9347C21.0215 33.4569 21.1018 34.0774 21.1777 34.724C21.2515 35.3663 21.2992 36.0909 21.3166 36.9024L21.3339 38.994H16.8123ZM24.1979 33.2052C24.5451 33.2052 24.8966 33.151 25.2568 33.0403C25.6148 32.9253 25.9294 32.7713 26.2028 32.5803C26.4566 32.1008 26.6584 31.5476 26.8103 30.9227C26.96 30.2978 27.0359 29.5948 27.0359 28.8137C27.0359 28.4102 26.9947 27.9675 26.9144 27.4859C26.832 27.0064 26.6974 26.5529 26.5065 26.1233C26.3199 25.6959 26.0574 25.3422 25.7167 25.0645C25.3804 24.7868 24.9573 24.6479 24.4496 24.6479C23.6208 24.6479 22.9569 24.8779 22.4535 25.3335C21.9501 25.7913 21.5466 26.3294 21.2471 26.9478C21.2298 27.232 21.2124 27.4685 21.1951 27.6594C21.182 27.846 21.1734 28.0478 21.169 28.267C21.1625 28.4818 21.1604 28.792 21.1604 29.1956C21.1604 29.9767 21.3036 30.671 21.5943 31.2785C21.8894 31.886 22.2669 32.3612 22.7312 32.7019C23.1999 33.0382 23.6881 33.2052 24.1979 33.2052Z" fill="#001F26"/>
<path d="M37.6896 36.3816C36.8217 36.3816 36.0537 36.2276 35.3897 35.9216C34.7301 35.6157 34.2116 35.1818 33.8362 34.6198C33.4652 34.0535 33.2808 33.3939 33.2808 32.641C33.2808 31.2655 33.8557 30.2066 35.0079 29.4646C36.1643 28.7182 37.7872 28.345 39.8767 28.345C40.328 28.345 40.8053 28.358 41.3087 28.3797C41.8121 28.3971 42.3632 28.4231 42.9663 28.4578V28.1194C42.9663 27.4424 42.8904 26.8241 42.7407 26.2621C42.5888 25.6958 42.3002 25.2445 41.8728 24.9082C41.4432 24.5676 40.7923 24.3962 39.9201 24.3962C39.3646 24.4895 38.8981 24.6912 38.5228 25.0037C38.1518 25.6351 37.8979 26.5094 37.759 27.6247L33.5672 27.0085C33.7928 25.0601 34.5218 23.5955 35.7542 22.617C36.9866 21.6406 38.6226 21.1503 40.6665 21.1503C42.2742 21.1503 43.5608 21.4193 44.5285 21.9574C45.5006 22.4911 46.1992 23.2636 46.6288 24.2746C47.0562 25.2879 47.271 26.5225 47.271 27.9805C47.271 28.8961 47.2732 29.6772 47.2797 30.3238C47.2841 30.9725 47.2884 31.6408 47.2884 32.3286C47.3058 33.1097 47.3144 33.804 47.3144 34.4115C47.3144 35.019 47.3144 35.5723 47.3144 36.0692H42.9229L43.2614 32.6237H42.9663C42.7233 33.2659 42.3718 33.8778 41.9162 34.4549C41.4584 35.0342 40.8834 35.5007 40.1891 35.8522C39.4991 36.2037 38.666 36.3816 37.6896 36.3816ZM39.2518 33.1444C39.7422 33.1444 40.2 33.0468 40.6231 32.8493C41.044 32.6541 41.415 32.4219 41.7339 32.155C42.0572 31.8838 42.3284 31.6169 42.5498 31.3566C42.7689 31.0919 42.9164 30.8879 42.9924 30.7491V30.0548C42.7776 30.0374 42.5064 30.0265 42.1766 30.02C41.8468 30.0157 41.5777 30.0114 41.3694 30.0114C40.7966 30.0114 40.2086 30.0504 39.6076 30.1242C39.0045 30.2001 38.5054 30.3585 38.1062 30.6015C37.7113 30.8402 37.516 31.2221 37.516 31.7471C37.516 32.257 37.6744 32.6193 37.9934 32.832C38.3167 33.0403 38.7354 33.1444 39.2518 33.1444Z" fill="#001F26"/>
<path d="M56.6202 36.3383C54.4375 36.3383 52.7191 35.7178 51.465 34.4724C50.2152 33.2226 49.5903 31.3285 49.5903 28.7877C49.5903 26.3295 50.2109 24.4461 51.4563 23.1378C52.706 21.8316 54.5676 21.1764 57.0455 21.1764C59.1804 21.1764 60.7817 21.6581 61.8535 22.6171C62.9297 23.5783 63.585 25.0884 63.8236 27.1474L59.6144 27.5119C59.2954 25.3596 58.3256 24.2834 56.707 24.2834C55.8326 24.2834 55.0884 24.5785 54.4765 25.1687C54.2964 25.7371 54.1641 26.2969 54.0773 26.8524C53.9948 27.4078 53.9558 28.063 53.9558 28.8138C53.9558 30.0939 54.2075 31.144 54.7108 31.9642C55.2142 32.78 55.991 33.1879 57.0455 33.1879C57.3926 33.1879 57.7441 33.1358 58.1043 33.0317C58.4623 32.9232 58.7639 32.7713 59.0069 32.5804C59.1674 32.205 59.2976 31.834 59.3974 31.4695C59.4951 31.1006 59.5732 30.6884 59.6317 30.2371H63.8497C63.6522 32.2918 62.9926 33.8215 61.8709 34.8282C60.7535 35.8349 59.0025 36.3383 56.6202 36.3383Z" fill="#001F26"/>
<path d="M79.9996 28.7269L70.1145 28.7703V28.8571C70.1145 30.1372 70.3661 31.1809 70.8695 31.9902C71.3729 32.8016 72.1475 33.2052 73.1954 33.2052C73.5426 33.2052 73.8854 33.151 74.2282 33.0403C74.5754 32.9253 74.8791 32.7713 75.1395 32.5803C75.4519 31.8405 75.6537 31.0594 75.747 30.237L79.9389 30.3238C79.8 31.6322 79.4746 32.7344 78.9669 33.6305C78.457 34.5222 77.7019 35.197 76.7017 35.6526C75.6993 36.1083 74.3975 36.3383 72.7962 36.3383C70.5093 36.3383 68.7649 35.7221 67.5629 34.4897C66.3652 33.2573 65.7664 31.374 65.7664 28.8397C65.7664 26.2838 66.3956 24.3745 67.6583 23.1117C68.9189 21.8511 70.774 21.2197 73.2215 21.2197C75.4606 21.2197 77.1487 21.8576 78.2899 23.1291C79.429 24.3962 79.9996 26.1493 79.9996 28.3884H79.9129L79.9996 28.7269ZM72.883 24.3094C72.4599 24.3094 72.052 24.3875 71.6593 24.5437C71.2709 24.6999 70.9259 24.9147 70.6265 25.186C70.5224 25.4875 70.4377 25.7913 70.3748 26.0972C70.3162 26.4053 70.2663 26.7178 70.2273 27.0345H75.6342C75.4368 26.1623 75.1135 25.4897 74.6622 25.0211C74.2109 24.5481 73.6164 24.3094 72.883 24.3094Z" fill="#001F26"/>
</svg>
