<svg width="123" height="39" viewBox="0 0 123 39" fill="none" xmlns="http://www.w3.org/2000/svg">
<mask id="mask0_46_172" style="mask-type:luminance" maskUnits="userSpaceOnUse" x="0" y="0" width="38" height="39">
<path d="M0 0.91806H37.9092V38.4106H0V0.91806Z" fill="white"/>
</mask>
<g mask="url(#mask0_46_172)">
<path d="M6.51696 2.53233H36.9319C37.3746 2.53233 37.7326 2.17433 37.7326 1.73388C37.7326 1.29126 37.3746 0.933258 36.9319 0.933258H6.39329C2.93043 0.933258 0.125 3.73869 0.125 7.20155C0.125 10.6622 2.93043 13.4677 6.39329 13.4677C2.93043 13.4677 0.125 16.2753 0.125 19.736C0.125 23.1988 2.93043 26.0042 6.39329 26.0042C2.85449 26.0042 0.00132699 28.9355 0.129339 32.5004C0.248674 35.896 3.14523 38.5408 6.543 38.5408H36.9319C37.3746 38.5408 37.7326 38.1828 37.7326 37.7424C37.7326 37.2998 37.3746 36.9418 36.9319 36.9418H6.51696C3.9068 36.9418 1.68068 34.8046 1.72408 32.1944C1.76747 29.658 3.84605 27.6055 6.39329 27.6055H36.9319C37.3746 27.6055 37.7326 27.2475 37.7326 26.807V25.208C37.7326 24.7653 37.3746 24.4095 36.9319 24.4095H6.51696C3.90463 24.4095 1.68068 22.2723 1.72408 19.6622C1.7653 17.1236 3.84388 15.0711 6.39329 15.0711H36.9319C37.3746 15.0711 37.7326 14.7131 37.7326 14.2726V12.6736C37.7326 12.2309 37.3746 11.8729 36.9319 11.8729H6.39112C3.84388 11.8729 1.7653 9.82256 1.72191 7.284C1.68068 4.6695 3.90463 2.53233 6.51696 2.53233Z" fill="#001F26"/>
</g>
<path d="M6.39382 11.8707C3.81838 11.8707 1.72461 9.77481 1.72461 7.20153C1.72461 4.62609 3.81838 2.53232 6.39382 2.53232H36.6461V11.8707H6.39382ZM36.6461 24.4052V15.0667H6.39382C3.81838 15.0667 1.72461 17.1627 1.72461 19.7359C1.72461 22.3092 3.81838 24.4052 6.39382 24.4052H36.6461ZM36.6461 36.9417V27.6033H6.39382C3.81838 27.6033 1.72461 29.6992 1.72461 32.2725C1.72461 34.848 3.81838 36.9417 6.39382 36.9417H36.6461Z" fill="#FAF3E4"/>
<path d="M36.6463 5.30738H5.68457V5.14899H36.6463V5.30738ZM36.6463 7.12125H5.68457V7.28181H36.6463V7.12125ZM36.6463 9.09569H5.68457V9.25408H36.6463V9.09569ZM36.6463 17.6834H5.68457V17.844H36.6463V17.6834ZM36.6463 19.6578H5.68457V19.8162H36.6463V19.6578ZM36.6463 21.6301H5.68457V21.7885H36.6463V21.6301ZM36.6463 30.22H5.68457V30.3784H36.6463V30.22ZM36.6463 32.1922H5.68457V32.3528H36.6463V32.1922ZM36.6463 34.1667H5.68457V34.3251H36.6463V34.1667Z" fill="#E6B187"/>
<mask id="mask1_46_172" style="mask-type:luminance" maskUnits="userSpaceOnUse" x="27" y="5" width="8" height="32">
<path d="M34.7169 5.01447H27.4961V36.1194H34.7169V5.01447Z" fill="white"/>
</mask>
<g mask="url(#mask1_46_172)">
<mask id="mask2_46_172" style="mask-type:luminance" maskUnits="userSpaceOnUse" x="28" y="5" width="7" height="31">
<path d="M28.0518 5.03616H34.4285V35.9632H28.0518V5.03616Z" fill="white"/>
</mask>
<g mask="url(#mask2_46_172)">
<path d="M34.3188 35.7961L31.2399 33.1317L28.1611 35.7961V5.14899H34.3188V35.7961Z" fill="black"/>
</g>
</g>
<path d="M33.6342 35.015L30.5554 32.3506L27.4766 35.015V5.14899H33.6342V35.015Z" fill="#00738C"/>
<path d="M53.9494 17.592C53.0512 17.592 52.2657 17.4314 51.5888 17.1147C50.9118 16.7914 50.352 16.3661 49.9138 15.8389C49.4798 15.3138 49.1587 14.741 48.9504 14.1205H48.6814L48.3689 17.323H44.585C44.6132 16.1383 44.6305 15.0665 44.637 14.1118C44.6414 13.1571 44.6479 12.2415 44.6544 11.3606C44.6652 10.4819 44.6717 9.56191 44.6717 8.60073C44.6717 7.16004 44.6631 5.76058 44.6457 4.40017C44.6327 3.04193 44.6132 1.70756 44.585 0.399226L49.0459 0L49.0198 2.90741C49.0198 3.31315 48.9981 3.66247 48.9591 3.95755C48.9244 4.24829 48.8832 4.53903 48.8376 4.83411C48.7899 5.12485 48.7378 5.4655 48.6814 5.85821H48.9938C49.3106 5.03156 49.751 4.37196 50.313 3.87944C50.8793 3.38258 51.4955 3.02023 52.1616 2.79459C52.832 2.56894 53.4829 2.45611 54.1143 2.45611C55.3576 2.45611 56.347 2.76855 57.0825 3.39342C57.8224 4.01396 58.3518 4.89052 58.6707 6.02311C58.994 7.15787 59.1567 8.49224 59.1567 10.0241C59.1567 12.3977 58.725 14.2506 57.8636 15.5872C57 16.9237 55.696 17.592 53.9494 17.592ZM52.0574 14.4589C52.8255 14.4589 53.4656 14.2506 53.9755 13.8341C54.2293 13.3372 54.4311 12.7709 54.583 12.133C54.7327 11.4908 54.8086 10.803 54.8086 10.0674C54.8086 9.61615 54.7674 9.14749 54.6871 8.66148C54.6047 8.17112 54.4702 7.71549 54.2792 7.2989C54.0926 6.87798 53.8409 6.5395 53.5242 6.28348C53.2117 6.02962 52.8299 5.90161 52.3786 5.90161C51.643 5.90161 50.9856 6.11641 50.4085 6.54384C49.8291 6.97344 49.367 7.53106 49.0198 8.21886C49.0025 8.58337 48.9851 8.9175 48.9678 9.21692C48.9548 9.512 48.9504 9.92425 48.9504 10.4493C48.9504 11.3997 49.124 12.1656 49.4711 12.7492C49.8183 13.335 50.2305 13.7646 50.7122 14.0424C51.1917 14.3201 51.6409 14.4589 52.0574 14.4589Z" fill="#001F26"/>
<path d="M68.3721 17.592C66.0115 17.592 64.202 16.9498 62.9479 15.6653C61.6981 14.3808 61.0732 12.5149 61.0732 10.0675C61.0732 7.60267 61.6981 5.71502 62.9479 4.40018C64.202 3.08751 66.0115 2.43008 68.3721 2.43008C70.7892 2.43008 72.6421 3.08534 73.9266 4.3915C75.2111 5.69984 75.8533 7.58314 75.8533 10.0414C75.8533 12.4954 75.2111 14.3678 73.9266 15.6566C72.6421 16.9476 70.7892 17.592 68.3721 17.592ZM68.754 14.485C69.112 14.485 69.4592 14.4329 69.7955 14.3288C70.1361 14.2246 70.429 14.0662 70.672 13.8514C70.9259 13.3611 71.1233 12.797 71.2622 12.1591C71.4054 11.5168 71.4792 10.8052 71.4792 10.0241C71.4792 8.61376 71.1928 7.51371 70.62 6.72611C70.0515 5.93416 69.2183 5.53711 68.1205 5.53711C67.2526 5.53711 66.5452 5.84738 66.0028 6.46574C65.8227 6.95827 65.6839 7.49852 65.5862 8.08869C65.4864 8.67451 65.4387 9.31891 65.4387 10.0241C65.4387 11.4365 65.7164 12.5323 66.2719 13.3133C66.8273 14.0944 67.654 14.485 68.754 14.485Z" fill="#001F26"/>
<path d="M85.0665 17.592C82.7058 17.592 80.8963 16.9498 79.6422 15.6653C78.3925 14.3808 77.7676 12.5149 77.7676 10.0675C77.7676 7.60267 78.3925 5.71502 79.6422 4.40018C80.8963 3.08751 82.7058 2.43008 85.0665 2.43008C87.4835 2.43008 89.3365 3.08534 90.6209 4.3915C91.9054 5.69984 92.5476 7.58314 92.5476 10.0414C92.5476 12.4954 91.9054 14.3678 90.6209 15.6566C89.3365 16.9476 87.4835 17.592 85.0665 17.592ZM85.4483 14.485C85.8064 14.485 86.1535 14.4329 86.4898 14.3288C86.8305 14.2246 87.1234 14.0662 87.3664 13.8514C87.6202 13.3611 87.8177 12.797 87.9565 12.1591C88.0997 11.5168 88.1735 10.8052 88.1735 10.0241C88.1735 8.61376 87.8871 7.51371 87.3143 6.72611C86.7458 5.93416 85.9127 5.53711 84.8148 5.53711C83.9469 5.53711 83.2396 5.84738 82.6972 6.46574C82.5171 6.95827 82.3782 7.49852 82.2806 8.08869C82.1808 8.67451 82.133 9.31891 82.133 10.0241C82.133 11.4365 82.4108 12.5323 82.9662 13.3133C83.5216 14.0944 84.3483 14.485 85.4483 14.485Z" fill="#001F26"/>
<path d="M95.0254 17.323C95.0362 15.9691 95.0449 14.5804 95.0514 13.1571C95.0623 11.7294 95.0688 10.241 95.0688 8.69619C95.0688 7.14702 95.0623 5.71935 95.0514 4.41753C95.0449 3.11136 95.0362 1.77048 95.0254 0.399226L99.5471 0C99.534 0.718174 99.521 1.37126 99.5037 1.96142C99.4907 2.54724 99.4733 3.14825 99.4516 3.76662C99.4277 4.38064 99.4082 5.07712 99.3908 5.85821C99.3778 6.63931 99.3648 7.59181 99.3475 8.71355H100.406L104.459 2.72515H109.033C108.419 3.64077 107.762 4.58676 107.063 5.56313C106.362 6.54167 105.659 7.51587 104.954 8.4879C104.728 8.83506 104.403 9.10844 103.982 9.30371C103.565 9.50116 102.943 9.61398 102.116 9.64219V9.8852C102.96 9.90255 103.578 10.0219 103.973 10.241C104.372 10.4558 104.694 10.7444 104.937 11.1089C105.718 12.1742 106.477 13.2092 107.219 14.2159C107.966 15.2227 108.714 16.2598 109.467 17.323H104.685L100.432 10.9006H99.3475C99.3648 11.3064 99.3757 11.7663 99.3822 12.2806C99.3865 12.7904 99.4039 13.4435 99.4342 14.242C99.469 15.0361 99.5058 16.0624 99.5471 17.323H95.0254Z" fill="#001F26"/>
<path d="M50.3919 36.3383C48.3958 36.3383 46.8249 35.8935 45.6793 35.0017C44.538 34.1057 43.8871 32.8234 43.7266 31.157L47.7101 30.8012C47.8772 31.5476 48.2048 32.1442 48.6909 32.589C49.1812 33.036 49.9319 33.2573 50.9387 33.2573C51.3726 33.2573 51.7501 33.2182 52.0756 33.1358C52.3989 33.049 52.694 32.9449 52.9608 32.8234C53.1106 32.5977 53.2212 32.3807 53.2906 32.1724C53.3601 31.9642 53.3948 31.7016 53.3948 31.3827C53.3948 30.8576 53.1344 30.4931 52.6137 30.2891C52.093 30.0874 51.2099 29.942 49.9666 29.8552C48.3871 29.7641 47.1656 29.5232 46.3042 29.1349C45.4406 28.7421 44.8461 28.2301 44.5163 27.5987C44.1865 26.9695 44.0216 26.2491 44.0216 25.4377C44.0216 24.5937 44.2907 23.8538 44.8288 23.2159C45.3712 22.5802 46.1349 22.0833 47.12 21.7231C48.1029 21.3586 49.2463 21.1764 50.5481 21.1764C52.7395 21.1764 54.4189 21.6016 55.5819 22.4522C56.7492 23.2983 57.4326 24.7737 57.6301 26.8784L53.6812 27.3036C53.5293 26.362 53.2169 25.6243 52.7439 25.0905C52.2752 24.5524 51.4616 24.2834 50.3051 24.2834C49.9753 24.2834 49.6651 24.3181 49.3765 24.3875C49.0923 24.457 48.8514 24.5437 48.6561 24.6479C48.3263 25.1122 48.1614 25.6438 48.1614 26.2448C48.1614 26.529 48.2352 26.7894 48.3871 27.0259C48.5368 27.2581 48.8319 27.4468 49.2723 27.59C49.7171 27.7289 50.3615 27.8374 51.2077 27.9111C52.5725 28.0044 53.6573 28.1672 54.4623 28.3972C55.2651 28.6293 55.8596 28.9222 56.2414 29.2737C56.6233 29.6274 56.875 30.0288 56.9965 30.4801C57.118 30.9314 57.1788 31.4217 57.1788 31.9468C57.1788 32.8624 56.888 33.6522 56.3109 34.3161C55.7316 34.9757 54.9309 35.4791 53.9068 35.8262C52.8871 36.1669 51.7154 36.3383 50.3919 36.3383Z" fill="#001F26"/>
<path d="M59.8125 38.994C59.8407 37.6444 59.8581 36.0779 59.8646 34.2901C59.8689 32.5022 59.8733 30.6623 59.8733 28.7703C59.8733 27.2081 59.8689 25.8586 59.8646 24.7173C59.8581 23.5717 59.8407 22.4955 59.8125 21.4888H64.3602C64.3016 21.9401 64.2257 22.4738 64.1346 23.0857C64.0413 23.6932 63.9653 24.2139 63.9089 24.6479H64.204C64.4687 24.0187 64.8245 23.4459 65.2715 22.9295C65.7163 22.4088 66.2717 21.9922 66.9378 21.6797C67.6083 21.363 68.4241 21.2024 69.3853 21.2024C70.6003 21.2024 71.5723 21.5278 72.3013 22.1744C73.0304 22.8167 73.5554 23.7084 73.8809 24.8475C74.2042 25.9888 74.3669 27.3101 74.3669 28.8137C74.3669 31.2048 73.9265 33.0555 73.0477 34.3682C72.1668 35.683 70.8563 36.3383 69.1162 36.3383C67.8361 36.3383 66.7751 36.0041 65.9311 35.3315C65.0914 34.6546 64.5164 33.8344 64.204 32.8667H63.9349C64.0217 33.4569 64.102 34.0774 64.178 34.724C64.2517 35.3663 64.2995 36.0909 64.3168 36.9024L64.3342 38.994H59.8125ZM67.1982 33.2052C67.5453 33.2052 67.8968 33.151 68.257 33.0403C68.615 32.9253 68.9296 32.7713 69.203 32.5803C69.4569 32.1008 69.6586 31.5476 69.8105 30.9227C69.9602 30.2978 70.0362 29.5948 70.0362 28.8137C70.0362 28.4102 69.9949 27.9675 69.9147 27.4859C69.8322 27.0064 69.6977 26.5529 69.5068 26.1233C69.3202 25.6959 69.0576 25.3422 68.717 25.0645C68.3807 24.7868 67.9576 24.6479 67.4499 24.6479C66.621 24.6479 65.9571 24.8779 65.4537 25.3335C64.9504 25.7913 64.5468 26.3294 64.2474 26.9478C64.23 27.232 64.2127 27.4685 64.1953 27.6594C64.1823 27.846 64.1736 28.0478 64.1693 28.267C64.1628 28.4818 64.1606 28.792 64.1606 29.1956C64.1606 29.9767 64.3038 30.671 64.5945 31.2785C64.8896 31.886 65.2671 32.3612 65.7315 32.7019C66.2001 33.0382 66.6883 33.2052 67.1982 33.2052Z" fill="#001F26"/>
<path d="M80.6901 36.3817C79.8222 36.3817 79.0541 36.2276 78.3902 35.9217C77.7306 35.6158 77.2121 35.1818 76.8367 34.6199C76.4657 34.0536 76.2812 33.394 76.2812 32.6411C76.2812 31.2655 76.8562 30.2067 78.0083 29.4647C79.1648 28.7183 80.7877 28.3451 82.8772 28.3451C83.3285 28.3451 83.8058 28.3581 84.3092 28.3798C84.8125 28.3972 85.3637 28.4232 85.9668 28.4579V28.1194C85.9668 27.4425 85.8909 26.8241 85.7412 26.2622C85.5893 25.6959 85.3007 25.2446 84.8733 24.9083C84.4437 24.5676 83.7928 24.3962 82.9206 24.3962C82.3651 24.4895 81.8986 24.6913 81.5233 25.0037C81.1522 25.6351 80.8984 26.5095 80.7595 27.6247L76.5677 27.0085C76.7933 25.0601 77.5223 23.5956 78.7547 22.6171C79.9871 21.6407 81.6231 21.1503 83.6669 21.1503C85.2747 21.1503 86.5613 21.4194 87.529 21.9575C88.5011 22.4912 89.1997 23.2636 89.6293 24.2747C90.0567 25.288 90.2715 26.5225 90.2715 27.9806C90.2715 28.8962 90.2737 29.6773 90.2802 30.3239C90.2846 30.9726 90.2889 31.6409 90.2889 32.3287C90.3062 33.1098 90.3149 33.8041 90.3149 34.4116C90.3149 35.0191 90.3149 35.5724 90.3149 36.0692H85.9234L86.2619 32.6238H85.9668C85.7238 33.266 85.3723 33.8778 84.9167 34.455C84.4589 35.0343 83.8839 35.5008 83.1896 35.8523C82.4996 36.2038 81.6665 36.3817 80.6901 36.3817ZM82.2523 33.1445C82.7426 33.1445 83.2005 33.0468 83.6235 32.8494C84.0445 32.6541 84.4155 32.422 84.7344 32.1551C85.0577 31.8839 85.3289 31.617 85.5502 31.3566C85.7694 31.0919 85.9169 30.888 85.9929 30.7491V30.0548C85.7781 30.0375 85.5069 30.0266 85.1771 30.0201C84.8473 30.0158 84.5782 30.0114 84.3699 30.0114C83.7971 30.0114 83.2091 30.0505 82.6081 30.1242C82.0049 30.2002 81.5059 30.3586 81.1067 30.6016C80.7118 30.8403 80.5165 31.2221 80.5165 31.7472C80.5165 32.2571 80.6749 32.6194 80.9939 32.832C81.3171 33.0403 81.7359 33.1445 82.2523 33.1445Z" fill="#001F26"/>
<path d="M99.6197 36.3383C97.437 36.3383 95.7186 35.7178 94.4645 34.4723C93.2147 33.2226 92.5898 31.3284 92.5898 28.7877C92.5898 26.3294 93.2104 24.4461 94.4558 23.1378C95.7055 21.8316 97.5672 21.1764 100.045 21.1764C102.18 21.1764 103.781 21.658 104.853 22.617C105.929 23.5782 106.584 25.0883 106.823 27.1474L102.614 27.5119C102.295 25.3596 101.325 24.2834 99.7065 24.2834C98.8321 24.2834 98.0879 24.5785 97.476 25.1686C97.2959 25.7371 97.1636 26.2969 97.0768 26.8523C96.9944 27.4078 96.9553 28.063 96.9553 28.8137C96.9553 30.0939 97.207 31.144 97.7104 31.9642C98.2137 32.78 98.9905 33.1879 100.045 33.1879C100.392 33.1879 100.744 33.1358 101.104 33.0317C101.462 32.9232 101.763 32.7713 102.006 32.5804C102.167 32.205 102.297 31.834 102.397 31.4695C102.495 31.1006 102.573 30.6884 102.631 30.2371H106.849C106.652 32.2918 105.992 33.8214 104.87 34.8282C103.753 35.8349 102.002 36.3383 99.6197 36.3383Z" fill="#001F26"/>
<path d="M123 28.727L113.115 28.7703V28.8571C113.115 30.1373 113.366 31.1809 113.87 31.9902C114.373 32.8017 115.148 33.2052 116.196 33.2052C116.543 33.2052 116.886 33.151 117.228 33.0403C117.576 32.9253 117.879 32.7713 118.14 32.5804C118.452 31.8405 118.654 31.0594 118.747 30.2371L122.939 30.3239C122.8 31.6322 122.475 32.7344 121.967 33.6305C121.457 34.5222 120.702 35.197 119.702 35.6527C118.7 36.1083 117.398 36.3383 115.796 36.3383C113.51 36.3383 111.765 35.7221 110.563 34.4897C109.365 33.2573 108.767 31.374 108.767 28.8398C108.767 26.2839 109.396 24.3745 110.659 23.1117C111.919 21.8511 113.774 21.2198 116.222 21.2198C118.461 21.2198 120.149 21.8577 121.29 23.1291C122.429 24.3962 123 26.1493 123 28.3885H122.913L123 28.727ZM115.883 24.3094C115.46 24.3094 115.052 24.3875 114.66 24.5438C114.271 24.7 113.926 24.9148 113.627 25.186C113.523 25.4876 113.438 25.7913 113.375 26.0973C113.316 26.4054 113.267 26.7178 113.228 27.0346H118.634C118.437 26.1624 118.114 25.4897 117.662 25.0211C117.211 24.5481 116.617 24.3094 115.883 24.3094Z" fill="#001F26"/>
</svg>
